<?xml version="1.0" encoding="utf-8"?>
<!-- Generator: Adobe Illustrator 27.5.0, SVG Export Plug-In . SVG Version: 6.00 Build 0)  -->
<svg version="1.1" xmlns="http://www.w3.org/2000/svg" xmlns:xlink="http://www.w3.org/1999/xlink" x="0px" y="0px"
	 viewBox="0 0 800 800" style="enable-background:new 0 0 800 800;" xml:space="preserve">
<g id="Background">
	<rect x="0.137" y="-0.492" style="fill:#F6F6F6;" width="20" height="20"/>
</g>
<g id="Objects">
	<g>
		<g>
			<path style="fill:#4B4B4B;" d="M283.696,773.612v-0.257c-0.349,0.398-0.692,0.724-1.031,0.973
				c-0.338,0.251-0.706,0.441-1.102,0.57c-0.395,0.132-0.827,0.195-1.296,0.195c-0.621,0-1.196-0.131-1.725-0.393
				c-0.528-0.263-0.986-0.639-1.372-1.126c-0.387-0.487-0.68-1.06-0.879-1.719c-0.199-0.659-0.299-1.371-0.299-2.137
				c0-1.621,0.396-2.886,1.188-3.791c0.792-0.904,1.833-1.357,3.125-1.357c0.747,0,1.377,0.129,1.89,0.384
				c0.513,0.257,1.013,0.652,1.501,1.183v-3.827c0-0.532,0.105-0.934,0.318-1.206c0.211-0.273,0.514-0.408,0.907-0.408
				c0.393,0,0.694,0.125,0.907,0.375c0.212,0.251,0.318,0.618,0.318,1.106v11.436c0,0.494-0.113,0.864-0.342,1.111
				c-0.228,0.246-0.522,0.37-0.883,0.37c-0.354,0-0.647-0.128-0.879-0.384C283.811,774.452,283.696,774.087,283.696,773.612z
				 M278.595,769.803c0,0.703,0.109,1.301,0.328,1.795c0.219,0.494,0.518,0.866,0.897,1.115c0.38,0.251,0.795,0.377,1.244,0.377
				c0.456,0,0.872-0.119,1.249-0.357c0.376-0.236,0.677-0.602,0.902-1.091c0.225-0.491,0.337-1.105,0.337-1.839
				c0-0.69-0.112-1.284-0.337-1.782c-0.225-0.496-0.528-0.876-0.912-1.14c-0.383-0.262-0.803-0.393-1.258-0.393
				c-0.475,0-0.899,0.135-1.273,0.403c-0.374,0.269-0.663,0.654-0.869,1.158C278.698,768.554,278.595,769.138,278.595,769.803z"/>
			<path style="fill:#4B4B4B;" d="M295.129,770.46h-5.071c0.006,0.588,0.125,1.107,0.356,1.557c0.23,0.45,0.538,0.789,0.921,1.017
				c0.383,0.229,0.806,0.341,1.268,0.341c0.31,0,0.593-0.035,0.85-0.107c0.257-0.074,0.505-0.187,0.746-0.343
				c0.241-0.154,0.462-0.321,0.664-0.499c0.202-0.178,0.464-0.419,0.788-0.723c0.133-0.113,0.323-0.171,0.571-0.171
				c0.266,0,0.48,0.074,0.645,0.22c0.165,0.146,0.248,0.351,0.248,0.617c0,0.234-0.093,0.507-0.276,0.821
				c-0.185,0.314-0.462,0.614-0.831,0.902c-0.372,0.288-0.836,0.526-1.397,0.717c-0.56,0.19-1.204,0.285-1.933,0.285
				c-1.664,0-2.96-0.476-3.884-1.425c-0.924-0.949-1.386-2.238-1.386-3.865c0-0.767,0.113-1.478,0.341-2.132
				c0.229-0.656,0.561-1.218,0.997-1.687c0.437-0.469,0.975-0.827,1.615-1.078c0.639-0.25,1.349-0.374,2.128-0.374
				c1.013,0,1.882,0.212,2.606,0.641c0.726,0.427,1.269,0.979,1.63,1.656c0.36,0.678,0.542,1.369,0.542,2.07
				c0,0.653-0.187,1.075-0.56,1.27C296.334,770.362,295.808,770.46,295.129,770.46z M290.058,768.987h4.702
				c-0.063-0.887-0.303-1.551-0.717-1.99c-0.415-0.44-0.96-0.66-1.638-0.66c-0.646,0-1.177,0.223-1.591,0.669
				C290.399,767.452,290.148,768.113,290.058,768.987z"/>
			<path style="fill:#4B4B4B;" d="M306.944,771.702c0,0.716-0.173,1.329-0.522,1.839c-0.348,0.51-0.862,0.896-1.543,1.159
				c-0.68,0.263-1.508,0.393-2.483,0.393c-0.931,0-1.729-0.143-2.394-0.428c-0.664-0.284-1.156-0.642-1.472-1.067
				c-0.317-0.429-0.475-0.857-0.475-1.288c0-0.285,0.101-0.528,0.304-0.73c0.202-0.202,0.459-0.304,0.77-0.304
				c0.271,0,0.48,0.066,0.626,0.199c0.146,0.133,0.286,0.32,0.418,0.56c0.266,0.464,0.585,0.807,0.956,1.036
				c0.37,0.228,0.875,0.342,1.515,0.342c0.519,0,0.945-0.116,1.277-0.347c0.332-0.232,0.498-0.496,0.498-0.794
				c0-0.456-0.172-0.787-0.518-0.996c-0.345-0.209-0.913-0.409-1.705-0.6c-0.892-0.221-1.619-0.454-2.18-0.698
				c-0.561-0.242-1.008-0.565-1.344-0.963c-0.335-0.399-0.503-0.891-0.503-1.473c0-0.518,0.155-1.01,0.465-1.473
				c0.31-0.461,0.768-0.83,1.374-1.106c0.603-0.276,1.333-0.414,2.188-0.414c0.671,0,1.275,0.069,1.809,0.21
				c0.536,0.138,0.983,0.326,1.34,0.561c0.358,0.233,0.63,0.493,0.816,0.777c0.186,0.285,0.28,0.563,0.28,0.837
				c0,0.297-0.1,0.541-0.298,0.732c-0.199,0.188-0.482,0.285-0.85,0.285c-0.266,0-0.492-0.076-0.679-0.229
				c-0.187-0.151-0.4-0.379-0.641-0.683c-0.196-0.253-0.426-0.456-0.693-0.608c-0.266-0.152-0.627-0.227-1.083-0.227
				c-0.469,0-0.857,0.099-1.168,0.3c-0.31,0.198-0.465,0.446-0.465,0.744c0,0.273,0.114,0.496,0.341,0.67
				c0.228,0.175,0.535,0.319,0.922,0.433c0.386,0.113,0.917,0.252,1.596,0.417c0.803,0.197,1.46,0.432,1.97,0.703
				c0.509,0.271,0.896,0.594,1.16,0.965C306.814,770.805,306.944,771.227,306.944,771.702z"/>
			<path style="fill:#4B4B4B;" d="M309.593,763.345c-0.361,0-0.669-0.111-0.926-0.333c-0.256-0.221-0.385-0.534-0.385-0.94
				c0-0.368,0.131-0.669,0.394-0.907c0.263-0.238,0.569-0.356,0.916-0.356c0.336,0,0.633,0.107,0.893,0.323
				c0.26,0.216,0.39,0.528,0.39,0.94c0,0.399-0.127,0.711-0.381,0.936C310.242,763.232,309.942,763.345,309.593,763.345z
				 M310.876,766.023v7.493c0,0.52-0.124,0.913-0.371,1.179c-0.247,0.266-0.56,0.398-0.94,0.398s-0.689-0.136-0.926-0.408
				c-0.238-0.272-0.356-0.662-0.356-1.169v-7.418c0-0.512,0.118-0.898,0.356-1.158c0.237-0.26,0.546-0.39,0.926-0.39
				s0.693,0.13,0.94,0.39C310.753,765.2,310.876,765.561,310.876,766.023z"/>
			<path style="fill:#4B4B4B;" d="M322.235,766.451v7.531c0,0.861-0.093,1.602-0.277,2.224c-0.182,0.619-0.477,1.133-0.883,1.538
				c-0.405,0.404-0.935,0.706-1.59,0.901c-0.655,0.197-1.471,0.295-2.446,0.295c-0.893,0-1.69-0.125-2.393-0.375
				c-0.702-0.251-1.243-0.573-1.624-0.969c-0.379-0.396-0.57-0.803-0.57-1.221c0-0.316,0.108-0.575,0.324-0.773
				c0.215-0.2,0.475-0.3,0.778-0.3c0.38,0,0.712,0.168,0.997,0.503c0.139,0.171,0.283,0.345,0.432,0.519
				c0.149,0.175,0.314,0.323,0.494,0.447c0.181,0.122,0.397,0.214,0.65,0.274c0.253,0.059,0.545,0.09,0.874,0.09
				c0.671,0,1.192-0.093,1.563-0.28c0.371-0.187,0.63-0.448,0.779-0.784c0.149-0.334,0.236-0.693,0.261-1.077
				c0.025-0.384,0.044-0.999,0.057-1.849c-0.399,0.559-0.859,0.983-1.382,1.274c-0.522,0.291-1.145,0.436-1.866,0.436
				c-0.868,0-1.625-0.222-2.275-0.665c-0.649-0.443-1.148-1.063-1.495-1.861c-0.349-0.799-0.522-1.719-0.522-2.764
				c0-0.778,0.105-1.482,0.317-2.108c0.213-0.628,0.515-1.156,0.907-1.587c0.393-0.431,0.845-0.755,1.358-0.974
				c0.513-0.218,1.076-0.327,1.691-0.327c0.734,0,1.371,0.142,1.909,0.422c0.538,0.283,1.039,0.725,1.501,1.326v-0.352
				c0-0.449,0.11-0.797,0.332-1.045c0.222-0.246,0.507-0.37,0.855-0.37c0.5,0,0.832,0.164,0.997,0.489
				C322.152,765.366,322.235,765.837,322.235,766.451z M314.722,769.737c0,1.051,0.229,1.846,0.688,2.384
				c0.459,0.539,1.053,0.808,1.781,0.808c0.43,0,0.837-0.116,1.22-0.347c0.384-0.232,0.695-0.58,0.936-1.045
				c0.24-0.466,0.361-1.03,0.361-1.695c0-1.057-0.233-1.881-0.698-2.469c-0.466-0.589-1.078-0.884-1.839-0.884
				c-0.741,0-1.334,0.282-1.78,0.846C314.944,767.897,314.722,768.699,314.722,769.737z"/>
			<path style="fill:#4B4B4B;" d="M326.356,765.985v0.314c0.455-0.602,0.954-1.043,1.496-1.325c0.542-0.281,1.163-0.423,1.866-0.423
				c0.684,0,1.295,0.149,1.834,0.447c0.538,0.298,0.941,0.719,1.206,1.262c0.172,0.317,0.282,0.66,0.332,1.026
				c0.051,0.368,0.077,0.836,0.077,1.406v4.824c0,0.52-0.119,0.913-0.357,1.179c-0.237,0.266-0.546,0.398-0.926,0.398
				c-0.387,0-0.7-0.136-0.94-0.408c-0.241-0.272-0.361-0.662-0.361-1.169v-4.321c0-0.854-0.119-1.509-0.357-1.961
				c-0.238-0.452-0.71-0.68-1.42-0.68c-0.461,0-0.883,0.138-1.263,0.413c-0.38,0.276-0.659,0.655-0.836,1.136
				c-0.126,0.387-0.19,1.107-0.19,2.165v3.248c0,0.525-0.123,0.921-0.365,1.184c-0.243,0.263-0.559,0.393-0.945,0.393
				c-0.375,0-0.681-0.136-0.922-0.408c-0.24-0.272-0.361-0.662-0.361-1.169v-7.493c0-0.494,0.107-0.863,0.323-1.107
				c0.215-0.243,0.51-0.365,0.883-0.365c0.229,0,0.435,0.054,0.619,0.162c0.183,0.108,0.331,0.27,0.441,0.483
				C326.3,765.412,326.356,765.675,326.356,765.985z"/>
			<path style="fill:#4B4B4B;" d="M342.13,770.46h-5.071c0.007,0.588,0.125,1.107,0.357,1.557c0.231,0.45,0.538,0.789,0.921,1.017
				c0.382,0.229,0.805,0.341,1.267,0.341c0.31,0,0.594-0.035,0.851-0.107c0.255-0.074,0.504-0.187,0.746-0.343
				c0.24-0.154,0.461-0.321,0.665-0.499c0.202-0.178,0.464-0.419,0.788-0.723c0.133-0.113,0.323-0.171,0.57-0.171
				c0.266,0,0.482,0.074,0.646,0.22c0.165,0.146,0.247,0.351,0.247,0.617c0,0.234-0.091,0.507-0.275,0.821
				c-0.184,0.314-0.461,0.614-0.832,0.902c-0.371,0.288-0.835,0.526-1.395,0.717c-0.561,0.19-1.205,0.285-1.933,0.285
				c-1.665,0-2.96-0.476-3.885-1.425c-0.923-0.949-1.386-2.238-1.386-3.865c0-0.767,0.114-1.478,0.342-2.132
				c0.228-0.656,0.561-1.218,0.998-1.687c0.436-0.469,0.975-0.827,1.614-1.078c0.639-0.25,1.349-0.374,2.128-0.374
				c1.013,0,1.881,0.212,2.606,0.641c0.726,0.427,1.269,0.979,1.63,1.656c0.36,0.678,0.542,1.369,0.542,2.07
				c0,0.653-0.187,1.075-0.561,1.27C343.334,770.362,342.808,770.46,342.13,770.46z M337.059,768.987h4.701
				c-0.063-0.887-0.302-1.551-0.717-1.99c-0.415-0.44-0.961-0.66-1.638-0.66c-0.647,0-1.177,0.223-1.592,0.669
				C337.398,767.452,337.148,768.113,337.059,768.987z"/>
			<path style="fill:#4B4B4B;" d="M352.7,773.612v-0.257c-0.348,0.398-0.692,0.724-1.03,0.973c-0.339,0.251-0.706,0.441-1.102,0.57
				c-0.395,0.132-0.828,0.195-1.296,0.195c-0.622,0-1.196-0.131-1.724-0.393c-0.529-0.263-0.986-0.639-1.373-1.126
				c-0.387-0.487-0.679-1.06-0.878-1.719c-0.2-0.659-0.299-1.371-0.299-2.137c0-1.621,0.396-2.886,1.187-3.791
				c0.792-0.904,1.833-1.357,3.125-1.357c0.747,0,1.378,0.129,1.89,0.384c0.513,0.257,1.013,0.652,1.5,1.183v-3.827
				c0-0.532,0.106-0.934,0.319-1.206c0.211-0.273,0.515-0.408,0.907-0.408c0.392,0,0.694,0.125,0.907,0.375
				c0.212,0.251,0.318,0.618,0.318,1.106v11.436c0,0.494-0.114,0.864-0.342,1.111c-0.228,0.246-0.522,0.37-0.883,0.37
				c-0.355,0-0.647-0.128-0.879-0.384C352.816,774.452,352.7,774.087,352.7,773.612z M347.6,769.803
				c0,0.703,0.108,1.301,0.327,1.795c0.218,0.494,0.518,0.866,0.898,1.115c0.379,0.251,0.794,0.377,1.243,0.377
				c0.456,0,0.873-0.119,1.249-0.357c0.377-0.236,0.678-0.602,0.902-1.091c0.225-0.491,0.337-1.105,0.337-1.839
				c0-0.69-0.112-1.284-0.337-1.782c-0.224-0.496-0.528-0.876-0.912-1.14c-0.384-0.262-0.803-0.393-1.259-0.393
				c-0.474,0-0.899,0.135-1.272,0.403c-0.373,0.269-0.663,0.654-0.869,1.158C347.702,768.554,347.6,769.138,347.6,769.803z"/>
			<path style="fill:#4B4B4B;" d="M363.298,762.176v3.96c0.487-0.506,0.984-0.895,1.491-1.163c0.506-0.269,1.134-0.403,1.881-0.403
				c0.861,0,1.616,0.204,2.266,0.611c0.648,0.41,1.151,1.002,1.51,1.777c0.358,0.774,0.537,1.695,0.537,2.76
				c0,0.785-0.1,1.504-0.299,2.16c-0.2,0.655-0.49,1.224-0.869,1.704c-0.38,0.481-0.841,0.854-1.382,1.117
				c-0.542,0.263-1.139,0.393-1.79,0.393c-0.4,0-0.775-0.047-1.125-0.143c-0.352-0.095-0.651-0.219-0.898-0.375
				c-0.246-0.154-0.457-0.314-0.631-0.479c-0.174-0.164-0.404-0.412-0.689-0.741v0.257c0,0.487-0.117,0.856-0.352,1.107
				c-0.233,0.25-0.531,0.374-0.892,0.374c-0.367,0-0.66-0.124-0.879-0.374c-0.219-0.251-0.328-0.62-0.328-1.107V762.29
				c0-0.525,0.106-0.923,0.317-1.191c0.212-0.269,0.509-0.403,0.889-0.403c0.399,0,0.706,0.128,0.921,0.384
				C363.19,761.337,363.298,761.701,363.298,762.176z M363.421,769.88c0,1.032,0.236,1.824,0.708,2.378
				c0.472,0.555,1.091,0.833,1.857,0.833c0.652,0,1.214-0.283,1.685-0.851c0.472-0.567,0.708-1.379,0.708-2.437
				c0-0.684-0.097-1.273-0.294-1.767c-0.197-0.494-0.475-0.876-0.835-1.145c-0.361-0.268-0.783-0.403-1.264-0.403
				c-0.494,0-0.935,0.135-1.32,0.403c-0.386,0.269-0.69,0.658-0.912,1.168C363.532,768.569,363.421,769.176,363.421,769.88z"/>
			<path style="fill:#4B4B4B;" d="M374.344,775.417l0.237-0.58l-3.191-8.035c-0.196-0.461-0.295-0.798-0.295-1.007
				c0-0.222,0.057-0.427,0.171-0.616c0.114-0.19,0.271-0.343,0.47-0.456c0.2-0.115,0.407-0.172,0.622-0.172
				c0.373,0,0.655,0.119,0.846,0.357c0.19,0.237,0.357,0.577,0.503,1.021l2.194,6.383l2.08-5.936
				c0.164-0.479,0.313-0.857,0.446-1.13c0.133-0.272,0.273-0.456,0.422-0.55c0.148-0.096,0.359-0.144,0.632-0.144
				c0.197,0,0.385,0.052,0.565,0.157c0.18,0.104,0.319,0.245,0.418,0.423c0.098,0.177,0.148,0.363,0.148,0.56
				c-0.026,0.12-0.067,0.291-0.124,0.514c-0.058,0.221-0.127,0.447-0.209,0.674l-3.381,8.852c-0.292,0.778-0.577,1.389-0.855,1.832
				c-0.279,0.443-0.647,0.785-1.106,1.021c-0.46,0.238-1.078,0.357-1.857,0.357c-0.759,0-1.33-0.082-1.708-0.246
				c-0.381-0.166-0.57-0.467-0.57-0.903c0-0.297,0.089-0.527,0.271-0.689c0.18-0.161,0.448-0.243,0.801-0.243
				c0.14,0,0.276,0.02,0.409,0.059c0.164,0.037,0.306,0.057,0.427,0.057c0.297,0,0.532-0.044,0.704-0.134
				c0.17-0.088,0.324-0.241,0.461-0.461C374.009,776.163,374.167,775.841,374.344,775.417z"/>
		</g>
		<g>
			<path style="fill:#4B4B4B;" d="M411.907,764.775h0.618v-0.778c0-0.814,0.099-1.457,0.306-1.938
				c0.204-0.479,0.556-0.826,1.047-1.045c0.49-0.217,1.163-0.326,2.017-0.326c1.52,0,2.272,0.367,2.272,1.114
				c0,0.238-0.079,0.444-0.24,0.615c-0.154,0.169-0.343,0.256-0.558,0.256c-0.1,0-0.278-0.019-0.527-0.06
				c-0.237-0.033-0.452-0.056-0.623-0.056c-0.468,0-0.767,0.141-0.905,0.415c-0.127,0.275-0.195,0.669-0.195,1.185v0.617h0.633
				c0.991,0,1.482,0.297,1.482,0.896c0,0.419-0.127,0.69-0.393,0.805c-0.262,0.114-0.624,0.171-1.089,0.171h-0.633v6.871
				c0,0.511-0.12,0.9-0.369,1.168c-0.241,0.273-0.554,0.406-0.942,0.406c-0.367,0-0.671-0.134-0.918-0.406
				c-0.244-0.268-0.364-0.657-0.364-1.168v-6.871h-0.714c-0.389,0-0.683-0.084-0.894-0.262c-0.209-0.171-0.314-0.399-0.314-0.678
				C410.603,765.083,411.038,764.775,411.907,764.775"/>
			<path style="fill:#4B4B4B;" d="M420.396,771.349v2.168c0,0.523-0.133,0.919-0.374,1.18c-0.247,0.266-0.559,0.395-0.938,0.395
				c-0.382,0-0.688-0.131-0.927-0.4c-0.236-0.264-0.36-0.656-0.36-1.174v-7.223c0-1.166,0.42-1.749,1.261-1.749
				c0.434,0,0.743,0.135,0.934,0.408c0.189,0.273,0.295,0.674,0.317,1.208c0.308-0.534,0.624-0.935,0.948-1.208
				c0.332-0.273,0.763-0.408,1.31-0.408c0.549,0,1.072,0.135,1.585,0.408c0.515,0.273,0.771,0.637,0.771,1.085
				c0,0.315-0.11,0.58-0.326,0.781c-0.22,0.209-0.454,0.311-0.706,0.311c-0.1,0-0.331-0.063-0.692-0.18
				c-0.365-0.113-0.688-0.173-0.963-0.173c-0.38,0-0.692,0.102-0.932,0.298c-0.242,0.205-0.431,0.497-0.564,0.887
				c-0.129,0.395-0.219,0.865-0.272,1.404C420.418,769.91,420.396,770.571,420.396,771.349"/>
			<path style="fill:#4B4B4B;" d="M432.317,770.457h-5.074c0.009,0.588,0.124,1.11,0.355,1.559c0.235,0.446,0.54,0.786,0.925,1.017
				c0.385,0.227,0.804,0.34,1.268,0.34c0.311,0,0.593-0.033,0.85-0.111c0.254-0.069,0.505-0.185,0.745-0.341
				c0.242-0.152,0.46-0.318,0.664-0.5c0.202-0.175,0.467-0.416,0.79-0.719c0.135-0.113,0.324-0.174,0.568-0.174
				c0.269,0,0.482,0.074,0.649,0.222c0.166,0.147,0.243,0.351,0.243,0.617c0,0.235-0.089,0.508-0.268,0.819
				c-0.188,0.317-0.463,0.616-0.836,0.906c-0.374,0.285-0.839,0.527-1.397,0.714c-0.56,0.19-1.206,0.286-1.932,0.286
				c-1.671,0-2.964-0.473-3.887-1.422c-0.924-0.952-1.392-2.242-1.392-3.868c0-0.767,0.117-1.479,0.348-2.135
				c0.225-0.658,0.558-1.216,0.999-1.688c0.436-0.471,0.97-0.828,1.612-1.078c0.638-0.249,1.347-0.374,2.128-0.374
				c1.011,0,1.881,0.214,2.606,0.646c0.724,0.423,1.273,0.977,1.629,1.654c0.361,0.681,0.542,1.368,0.542,2.074
				c0,0.648-0.189,1.07-0.561,1.266C433.519,770.36,432.995,770.457,432.317,770.457 M427.243,768.982h4.701
				c-0.063-0.885-0.298-1.55-0.714-1.986c-0.418-0.442-0.959-0.66-1.641-0.66c-0.645,0-1.177,0.22-1.592,0.669
				C427.583,767.451,427.33,768.109,427.243,768.982"/>
			<path style="fill:#4B4B4B;" d="M443.104,770.457h-5.073c0.006,0.588,0.125,1.11,0.354,1.559c0.231,0.446,0.539,0.786,0.921,1.017
				c0.383,0.227,0.806,0.34,1.271,0.34c0.308,0,0.593-0.033,0.845-0.111c0.259-0.069,0.506-0.185,0.75-0.341
				c0.242-0.152,0.46-0.318,0.664-0.5c0.199-0.175,0.464-0.416,0.788-0.719c0.135-0.113,0.326-0.174,0.569-0.174
				c0.268,0,0.483,0.074,0.65,0.222c0.165,0.147,0.24,0.351,0.24,0.617c0,0.235-0.087,0.508-0.273,0.819
				c-0.177,0.317-0.455,0.616-0.83,0.906c-0.37,0.285-0.84,0.527-1.396,0.714c-0.557,0.19-1.208,0.286-1.935,0.286
				c-1.667,0-2.959-0.473-3.887-1.422c-0.924-0.952-1.389-2.242-1.389-3.868c0-0.767,0.116-1.479,0.348-2.135
				c0.227-0.658,0.559-1.216,0.996-1.688c0.435-0.471,0.973-0.828,1.614-1.078c0.638-0.249,1.351-0.374,2.129-0.374
				c1.009,0,1.878,0.214,2.613,0.646c0.72,0.423,1.266,0.977,1.621,1.654c0.359,0.681,0.545,1.368,0.545,2.074
				c0,0.648-0.191,1.07-0.561,1.266C444.304,770.36,443.78,770.457,443.104,770.457 M438.031,768.982h4.701
				c-0.064-0.885-0.304-1.55-0.715-1.986c-0.421-0.442-0.962-0.66-1.643-0.66c-0.645,0-1.176,0.22-1.593,0.669
				C438.369,767.451,438.115,768.109,438.031,768.982"/>
			<path style="fill:#4B4B4B;" d="M448.784,766.005v0.311c0.486-0.601,0.994-1.042,1.524-1.324c0.519-0.284,1.118-0.427,1.782-0.427
				c0.795,0,1.535,0.208,2.207,0.617c0.671,0.414,1.198,1.016,1.589,1.807c0.39,0.795,0.586,1.729,0.586,2.813
				c0,0.796-0.112,1.531-0.336,2.201c-0.224,0.668-0.537,1.227-0.929,1.68c-0.393,0.45-0.855,0.802-1.389,1.046
				c-0.542,0.241-1.112,0.363-1.728,0.363c-0.738,0-1.364-0.148-1.865-0.447c-0.503-0.292-0.982-0.733-1.441-1.306v3.893
				c0,1.136-0.416,1.71-1.244,1.71c-0.49,0-0.809-0.146-0.972-0.44c-0.151-0.299-0.233-0.724-0.233-1.291v-11.193
				c0-0.495,0.107-0.859,0.32-1.107c0.215-0.239,0.512-0.364,0.885-0.364c0.369,0,0.666,0.125,0.896,0.374
				C448.67,765.174,448.784,765.53,448.784,766.005 M453.868,769.772c0-0.685-0.106-1.273-0.314-1.763
				c-0.209-0.492-0.499-0.867-0.866-1.128c-0.367-0.263-0.782-0.396-1.232-0.396c-0.714,0-1.318,0.284-1.809,0.844
				c-0.492,0.566-0.739,1.396-0.739,2.493c0,1.026,0.244,1.833,0.735,2.406c0.487,0.573,1.086,0.858,1.813,0.858
				c0.429,0,0.83-0.126,1.197-0.372c0.371-0.253,0.665-0.627,0.884-1.127C453.756,771.086,453.868,770.48,453.868,769.772"/>
			<path style="fill:#4B4B4B;" d="M459.083,763.339c-0.362,0-0.669-0.114-0.923-0.335c-0.26-0.223-0.388-0.532-0.388-0.937
				c0-0.368,0.131-0.67,0.396-0.91c0.262-0.234,0.566-0.356,0.914-0.356c0.34,0,0.636,0.107,0.894,0.319
				c0.26,0.219,0.391,0.534,0.391,0.946c0,0.399-0.127,0.711-0.378,0.936C459.736,763.224,459.435,763.339,459.083,763.339
				 M460.368,766.017v7.502c0,0.516-0.124,0.908-0.37,1.172c-0.25,0.269-0.561,0.4-0.941,0.4c-0.381,0-0.685-0.134-0.928-0.406
				c-0.233-0.276-0.355-0.665-0.355-1.166v-7.428c0-0.51,0.122-0.895,0.355-1.154c0.243-0.265,0.547-0.392,0.928-0.392
				c0.381,0,0.691,0.127,0.941,0.392C460.244,765.197,460.368,765.559,460.368,766.017"/>
			<path style="fill:#4B4B4B;" d="M468.727,773.908l-2.284-3.766l-1.408,1.328v2.065c0,0.499-0.133,0.882-0.397,1.149
				c-0.257,0.273-0.566,0.406-0.906,0.406c-0.398,0-0.715-0.131-0.941-0.4c-0.226-0.264-0.344-0.656-0.344-1.174v-11.063
				c0-0.573,0.114-1.011,0.331-1.313c0.223-0.305,0.545-0.452,0.953-0.452c0.399,0,0.713,0.137,0.949,0.411
				c0.234,0.271,0.354,0.674,0.354,1.202v6.293l2.916-3.063c0.362-0.376,0.633-0.641,0.827-0.778
				c0.189-0.139,0.419-0.208,0.689-0.208c0.326,0,0.594,0.104,0.815,0.309c0.211,0.206,0.32,0.466,0.32,0.773
				c0,0.379-0.354,0.889-1.055,1.521l-1.377,1.263l2.659,4.183c0.193,0.313,0.339,0.544,0.424,0.706
				c0.084,0.159,0.13,0.319,0.13,0.462c0,0.413-0.114,0.734-0.341,0.976c-0.224,0.236-0.523,0.354-0.886,0.354
				c-0.316,0-0.564-0.081-0.733-0.256C469.254,774.663,469.017,774.352,468.727,773.908"/>
			<path style="fill:#4B4B4B;" d="M474.363,775.091c-0.392,0-0.728-0.126-1.014-0.381c-0.284-0.249-0.429-0.605-0.429-1.064
				c0-0.386,0.138-0.719,0.41-0.995c0.274-0.279,0.607-0.419,1.008-0.419c0.397,0,0.735,0.14,1.022,0.412
				c0.279,0.275,0.422,0.612,0.422,1.002c0,0.452-0.143,0.808-0.422,1.06C475.074,774.966,474.742,775.091,474.363,775.091"/>
			<path style="fill:#4B4B4B;" d="M487.261,771.881c0,0.32-0.097,0.668-0.291,1.034c-0.191,0.37-0.488,0.718-0.886,1.05
				c-0.394,0.332-0.891,0.602-1.495,0.804c-0.601,0.202-1.28,0.307-2.03,0.307c-1.607,0-2.858-0.47-3.758-1.401
				c-0.896-0.936-1.346-2.19-1.346-3.76c0-1.067,0.204-2.006,0.619-2.824c0.407-0.815,1.004-1.447,1.781-1.894
				c0.779-0.448,1.716-0.67,2.794-0.67c0.674,0,1.288,0.098,1.852,0.295c0.561,0.195,1.032,0.451,1.425,0.759
				c0.387,0.315,0.686,0.644,0.89,0.992c0.207,0.352,0.307,0.681,0.307,0.987c0,0.308-0.113,0.571-0.343,0.787
				c-0.235,0.215-0.516,0.324-0.839,0.324c-0.219,0-0.398-0.057-0.541-0.166c-0.144-0.112-0.305-0.29-0.479-0.542
				c-0.317-0.479-0.646-0.842-0.996-1.079c-0.343-0.243-0.78-0.362-1.313-0.362c-0.762,0-1.384,0.298-1.854,0.898
				c-0.468,0.596-0.703,1.42-0.703,2.454c0,0.488,0.063,0.939,0.183,1.348c0.117,0.407,0.291,0.756,0.521,1.044
				c0.23,0.287,0.504,0.505,0.826,0.654c0.324,0.153,0.681,0.226,1.064,0.226c0.521,0,0.967-0.12,1.337-0.36
				c0.376-0.241,0.702-0.607,0.986-1.102c0.158-0.291,0.327-0.518,0.509-0.684c0.183-0.163,0.409-0.249,0.676-0.249
				c0.316,0,0.58,0.123,0.786,0.362C487.155,771.352,487.261,771.611,487.261,771.881"/>
			<path style="fill:#4B4B4B;" d="M498.452,769.821c0,0.77-0.122,1.484-0.355,2.139c-0.247,0.652-0.592,1.213-1.05,1.679
				c-0.455,0.469-1.002,0.828-1.632,1.08c-0.64,0.247-1.35,0.375-2.139,0.375c-0.785,0-1.493-0.128-2.121-0.383
				c-0.623-0.249-1.171-0.614-1.626-1.082c-0.461-0.477-0.809-1.034-1.052-1.677c-0.229-0.643-0.351-1.354-0.351-2.131
				c0-0.786,0.124-1.506,0.358-2.158c0.242-0.654,0.589-1.212,1.039-1.673c0.451-0.462,0.993-0.817,1.631-1.07
				c0.643-0.249,1.35-0.374,2.121-0.374c0.784,0,1.498,0.125,2.139,0.382c0.638,0.251,1.183,0.614,1.643,1.079
				c0.458,0.475,0.803,1.029,1.04,1.672C498.331,768.33,498.452,769.039,498.452,769.821 M495.848,769.821
				c0-1.059-0.234-1.881-0.698-2.469c-0.463-0.596-1.09-0.888-1.874-0.888c-0.508,0-0.955,0.132-1.343,0.394
				c-0.387,0.262-0.681,0.649-0.89,1.164c-0.209,0.514-0.315,1.113-0.315,1.799c0,0.679,0.103,1.268,0.31,1.773
				c0.208,0.511,0.502,0.897,0.886,1.166c0.386,0.267,0.835,0.404,1.353,0.404c0.784,0,1.411-0.296,1.874-0.892
				C495.614,771.682,495.848,770.862,495.848,769.821"/>
			<path style="fill:#4B4B4B;" d="M508.343,770.011v3.446c0,0.547-0.12,0.951-0.369,1.227c-0.25,0.273-0.571,0.408-0.978,0.408
				c-0.393,0-0.714-0.136-0.951-0.408c-0.247-0.276-0.372-0.681-0.372-1.227v-4.131c0-0.653-0.02-1.162-0.063-1.524
				c-0.046-0.354-0.168-0.655-0.362-0.883c-0.196-0.235-0.509-0.352-0.931-0.352c-0.851,0-1.407,0.29-1.677,0.881
				c-0.267,0.576-0.406,1.413-0.406,2.507v3.502c0,0.538-0.122,0.946-0.361,1.224c-0.249,0.273-0.567,0.412-0.965,0.412
				c-0.396,0-0.717-0.139-0.967-0.412c-0.252-0.277-0.376-0.685-0.376-1.224v-7.419c0-0.489,0.111-0.86,0.335-1.111
				c0.229-0.257,0.526-0.382,0.89-0.382c0.356,0,0.651,0.123,0.892,0.355c0.236,0.238,0.354,0.566,0.354,0.984v0.245
				c0.453-0.535,0.935-0.932,1.444-1.181c0.517-0.26,1.082-0.386,1.713-0.386c0.651,0,1.211,0.131,1.678,0.39
				c0.47,0.261,0.854,0.655,1.16,1.177c0.439-0.528,0.909-0.923,1.41-1.181c0.5-0.257,1.053-0.386,1.662-0.386
				c0.706,0,1.321,0.143,1.834,0.419c0.51,0.278,0.893,0.68,1.147,1.195c0.221,0.473,0.33,1.21,0.33,2.217v5.063
				c0,0.547-0.122,0.951-0.367,1.227c-0.246,0.273-0.575,0.408-0.979,0.408c-0.395,0-0.714-0.139-0.965-0.412
				c-0.25-0.277-0.376-0.685-0.376-1.224v-4.361c0-0.559-0.023-1.003-0.069-1.338c-0.047-0.337-0.177-0.62-0.383-0.847
				c-0.212-0.228-0.53-0.344-0.953-0.344c-0.342,0-0.666,0.107-0.974,0.308c-0.307,0.198-0.547,0.477-0.721,0.813
				C508.442,768.127,508.343,768.901,508.343,770.011"/>
		</g>
		<g>
			<path style="fill:#4B4B4B;" d="M387.639,769.193c-0.002-0.005-0.002-0.01-0.002-0.018
				C387.637,769.183,387.637,769.188,387.639,769.193z"/>
			<path style="fill:#4B4B4B;" d="M387.77,770.022c0.002,0,0.002,0,0.003,0c-0.05-0.236-0.088-0.471-0.119-0.702
				C387.684,769.553,387.723,769.789,387.77,770.022z"/>
			<path style="fill:#4B4B4B;" d="M388.628,772.428c-0.006-0.01-0.011-0.021-0.017-0.033
				C388.617,772.407,388.622,772.419,388.628,772.428z"/>
			<path style="fill:#4B4B4B;" d="M388.546,772.268c-0.023-0.044-0.044-0.09-0.065-0.134
				C388.502,772.181,388.523,772.224,388.546,772.268z"/>
			<path style="fill:#4B4B4B;" d="M388.011,770.949c0.127,0.4,0.28,0.788,0.457,1.158c-0.18-0.378-0.33-0.767-0.454-1.158
				C388.013,770.949,388.012,770.949,388.011,770.949z"/>
			<path style="fill:#4B4B4B;" d="M397.676,759.256c0.501,0,0.871,0.04,1.295,0.111l0.12-0.763c0,0-1.171-0.36-2.71-0.234
				l-0.121-0.415c0.478-0.101,0.838-0.526,0.838-1.034c0-0.582-0.474-1.054-1.057-1.054s-1.056,0.472-1.056,1.054
				c0,0.508,0.358,0.934,0.836,1.034l0.134,0.463c-1.634,0.225-2.935,0.862-2.935,0.862l0.23,0.705
				c0.989-0.329,1.846-0.529,2.624-0.613C396.636,759.292,397.209,759.256,397.676,759.256z"/>
			<path style="fill:#4B4B4B;" d="M388.608,763.115l0.006-0.008c0.039-0.05,0.076-0.097,0.113-0.143l-0.313-0.226l-0.488-0.356
				c-0.027,0.038-0.795,0.744-1.401,2.048c-0.025-0.041-0.056-0.081-0.09-0.119c-0.182-0.198-0.436-0.3-0.758-0.294
				c-0.004,0-0.009,0-0.015,0c-0.2,0-0.337-0.066-0.427-0.147c0.089-0.113,0.143-0.256,0.143-0.413c0-0.368-0.3-0.669-0.669-0.669
				c-0.369,0-0.669,0.301-0.669,0.669c0,0.37,0.3,0.669,0.669,0.669c0.058,0,0.113-0.01,0.167-0.021
				c0.164,0.183,0.425,0.342,0.808,0.334c0.197-0.002,0.341,0.049,0.438,0.155c0.111,0.121,0.148,0.296,0.16,0.428
				c-0.001,0.002-0.001,0.005-0.003,0.005c-0.435,1.19-0.311,2.67-0.311,2.67l1.057,0.042c0.022-0.539,0.099-1.482,0.372-2.23
				C387.922,764.059,388.581,763.153,388.608,763.115z"/>
			<path style="fill:#4B4B4B;" d="M406.875,760.14c-0.368,0-0.669,0.299-0.669,0.669c0,0.058,0.009,0.112,0.024,0.165
				c-0.184,0.166-0.343,0.428-0.337,0.81c0.003,0.197-0.048,0.34-0.154,0.437c-0.085,0.075-0.191,0.115-0.296,0.141
				c-0.787-1.103-1.756-1.775-1.756-1.775l-0.759,0.813c0.573,0.521,1.159,1.175,1.728,1.99c0.394,0.563,0.799,1.29,1.136,2.015
				l1.025-0.486c0,0-0.468-1.155-1.126-2.191c0.114-0.04,0.229-0.102,0.331-0.192c0.2-0.181,0.299-0.436,0.293-0.758
				c-0.002-0.208,0.066-0.349,0.148-0.441c0.114,0.087,0.257,0.143,0.412,0.143c0.371,0,0.67-0.3,0.67-0.669
				C407.545,760.439,407.247,760.14,406.875,760.14z"/>
			<path style="fill:#4B4B4B;" d="M404.218,769.342c-1.409,0.687-3.729,1.594-6.781,2.02c-1.198,0.166-2.359,0.227-3.428,0.227
				c-1.391,0-2.62-0.103-3.563-0.223c-1.076-0.136-1.918-0.302-2.432-0.418c0.124,0.392,0.273,0.78,0.454,1.158
				c0.003,0.01,0.008,0.021,0.013,0.027c0.022,0.044,0.043,0.09,0.065,0.134c0.021,0.044,0.043,0.087,0.065,0.127
				c0.006,0.012,0.011,0.023,0.017,0.033c0.303,0.57,0.666,1.095,1.081,1.549c1.44,1.575,2.907,1.824,2.921,1.826l0.023,0.003
				l0.022,0.008c0.013,0.005,1.314,0.425,3.292,0.425c1.945,0,3.854-0.393,5.674-1.167c1.348-0.689,2.622-1.736,3.254-2.67
				c0.488-0.723,0.841-1.493,1.05-2.294c0.111-0.426,0.199-1.107,0.147-1.825C405.694,768.549,405.067,768.929,404.218,769.342z"/>
			<path style="fill:#4B4B4B;" d="M389.061,763.449c-0.041,0.06-0.652,0.925-1.135,2.253c-0.362,0.995-0.346,2.443-0.346,2.46v0.003
				c0,0.34,0.019,0.677,0.057,1.011c0,0.008,0,0.013,0.002,0.018c0.004,0.043,0.011,0.084,0.015,0.127
				c0.03,0.231,0.069,0.466,0.119,0.702c0.7,0.178,4.879,1.152,9.548,0.502c2.927-0.407,5.149-1.273,6.499-1.927
				c1.121-0.544,1.842-1.036,2.12-1.238c-0.277-1.028-1.042-2.641-1.743-3.646c-2.005-2.865-4.167-3.601-5.277-3.783
				c-0.424-0.069-0.763-0.109-1.243-0.109c-0.447,0-1.002,0.036-1.743,0.114c-0.743,0.077-1.572,0.273-2.532,0.596
				c-1.348,0.451-2.568,1.159-3.527,2.048l-0.033,0.03C389.699,762.739,389.402,763.014,389.061,763.449z M401.331,762.782
				c0.961,0,1.743,0.781,1.743,1.743c0,0.962-0.782,1.744-1.743,1.744c-0.962,0-1.742-0.782-1.742-1.744
				C399.588,763.563,400.369,762.782,401.331,762.782z M393.089,762.713c1.556,0,2.817,1.262,2.817,2.817
				c0,1.556-1.26,2.815-2.817,2.815c-1.555,0-2.816-1.259-2.816-2.815C390.273,763.974,391.534,762.713,393.089,762.713z"/>
		</g>
	</g>
	<g>
		<path style="fill:#FFDD00;" d="M314.789,236.927c-1.838-1.772-3.676-3.545-5.515-5.317c0.415,0.239,0.831,0.478,1.246,0.717
			c2.861,1.647,5.089-2.467,2.533-4.334c-0.706-0.516-1.383-1.059-2.054-1.607c1.645-0.228,3.042-2.095,1.931-3.726l-1.103-1.619
			c0.303-0.771,0.173-1.654-0.72-2.349c-0.659-0.513-1.318-1.027-1.977-1.54c-1.693-1.319-4.509-0.121-4.39,1.807
			c-0.857-0.17-1.737-0.298-2.646-0.387c-1.306-0.128-2.084,0.729-2.317,1.772c-1.893-1.091-3.787-2.181-5.68-3.272
			c-2.444-1.408-5.13,1.935-3.045,3.947c0.655,0.632,1.31,1.264,1.966,1.896c-2.878-1.842-5.754-3.687-8.632-5.529
			c-1.86-1.19-3.809,0.578-3.736,2.371c-0.95-0.548-1.889-1.115-2.844-1.655c-1.794-1.016-3.858,0.66-3.797,2.352
			c-1.553-0.592-3.149-1.04-4.801-1.263c-1.882-0.254-3.129,1.104-3.016,2.542c-0.353,0.821-0.29,1.776,0.534,2.45
			c0.293,0.24,0.586,0.479,0.878,0.719c-0.837,0.288-1.521,1.077-1.687,1.938c-1.956-0.557-3.69,2.17-2.11,3.797
			c2.679,2.756,5.404,5.463,8.17,8.124c-2.656-1.888-5.304-3.787-7.931-5.717c-1.772-1.302-4.434,1.313-3.086,3.086
			c2.192,2.883,4.495,5.655,6.9,8.323c-0.396-0.205-0.787-0.417-1.184-0.619c-2.325-1.181-4.313,1.561-2.704,3.504
			c0.935,1.13,1.9,2.226,2.877,3.307c-1.988-0.559-3.685,2.017-2.127,3.688c0.995,1.067,1.988,2.135,2.981,3.204
			c-1.936-0.571-3.762,1.868-2.134,3.486c2.573,2.556,5.528,4.502,8.757,6.139c0.725,0.368,1.392,0.191,1.834-0.223
			c0.314,0.172,0.627,0.345,0.941,0.517c2.206,1.212,4.345-1.606,2.657-3.444c-0.605-0.659-1.218-1.311-1.826-1.968
			c1.334,0.77,2.67,1.539,4.003,2.31c2.526,1.461,4.442-2.15,2.228-3.812c-2.24-1.683-4.39-3.459-6.461-5.317
			c1.854,1.166,3.682,2.374,5.49,3.613c2.603,2.06,5.29,4.03,8.071,5.892c2.479,1.66,4.517-2.182,2.283-3.907
			c-2.391-1.846-4.83-3.617-7.307-5.328c-2.857-2.242-5.617-4.598-8.257-7.083c7.108,4.874,14.305,9.619,21.609,14.202
			c2.105,1.321,4.75-1.935,2.714-3.517c-3.694-2.872-7.318-5.826-10.887-8.843c4.153,3.189,8.255,6.445,12.293,9.786
			c1.95,1.613,4.663-0.637,3.742-2.48c0.575,0.457,1.158,0.903,1.73,1.364c2.314,1.866,5.639-1.387,3.305-3.305
			c-0.947-0.778-1.896-1.555-2.843-2.333c1.678-0.459,2.602-3.179,0.681-4.515c-1.077-0.743-2.144-1.501-3.218-2.247
			c0.163,0.103,0.325,0.205,0.488,0.308c2.376,1.499,4.52-1.558,3.247-3.52c0.715-0.485,1.178-1.378,1.167-2.292
			C314.347,242.15,316.763,238.83,314.789,236.927z"/>
		<path style="fill:#33B1E8;" d="M599.001,298.384c-8.465-11.389-16.93-22.777-25.396-34.165
			c6.327,5.646,12.842,11.084,19.55,16.293c2.389,1.855,5.205-0.924,3.316-3.316c-6.137-7.771-12.275-15.543-18.412-23.314
			c4.508,3.891,9.104,7.684,13.792,11.37c2.394,1.882,5.322-0.963,3.357-3.357c-5.621-6.849-11.242-13.699-16.863-20.548
			c5.055,3.979,10.247,7.787,15.581,11.407c2.389,1.621,4.557-1.81,2.905-3.765c-4.833-5.717-9.666-11.435-14.498-17.153
			c2.484,2.211,4.968,4.423,7.453,6.634c2.391,2.127,5.296-1.008,3.426-3.426c-4.694-6.065-9.512-12.029-14.45-17.891
			c2.137,1.84,4.275,3.679,6.412,5.52c2.384,2.055,5.446-1.041,3.435-3.435c-5.815-6.923-11.63-13.846-17.445-20.768
			c5.084,4.071,10.169,8.141,15.253,12.211c2.478,1.984,5.748-1.098,3.542-3.542c-6.228-6.903-12.461-13.802-18.691-20.703
			c4.97,3.732,9.939,7.464,14.909,11.196c2.405,1.806,4.971-1.974,3.095-4.011c-2.955-3.208-5.91-6.417-8.865-9.625
			c1.55,1.117,3.111,2.219,4.685,3.304c2.577,1.776,4.872-1.951,3.128-4.054c-3.344-4.034-6.868-7.891-10.527-11.609
			c1.559,1.183,3.119,2.364,4.688,3.534c2.425,1.809,4.747-1.916,3.038-3.938c-2.281-2.697-4.596-5.362-6.932-8.008
			c0.899,0.612,1.811,1.208,2.756,1.764c2.365,1.394,4.504-1.712,2.82-3.655c-3.63-4.188-7.289-8.352-10.961-12.502
			c1.844,1.57,3.688,3.141,5.549,4.691c2.343,1.951,5.245-0.979,3.326-3.326c-2.899-3.546-5.769-7.16-8.649-10.789
			c0.872,0.845,1.744,1.691,2.616,2.536c1.882,1.824,5.303-0.572,3.746-2.89c-2.563-3.816-5.227-7.557-7.972-11.234
			c2.203,2.153,4.396,4.317,6.568,6.503c2.251,2.265,5.49-1.096,3.463-3.463c-4.418-5.159-8.75-10.388-13.03-15.659
			c2.564,2.34,5.129,4.678,7.692,7.019c2.004,1.83,5.793-0.655,3.981-3.071c-1.973-2.631-3.946-5.262-5.918-7.893
			c0.913,0.542,1.838,1.069,2.778,1.575c2.25,1.209,4.931-1.258,3.567-3.567c-1.797-3.043-3.813-5.897-6.043-8.577
			c1.204-0.881,1.758-2.616,0.336-3.894c-2.516-2.263-5.214-3.376-8.59-3.531c-1.805-0.083-3.013,1.928-2.515,3.498
			c-0.551-0.534-1.099-1.072-1.636-1.627c-1.974-2.041-5.843,0.737-4.045,3.121c0.549,0.727,1.097,1.455,1.646,2.182
			c-3.224-2.932-6.45-5.863-9.675-8.794c-1.974-1.794-5.711,0.646-3.919,3.024c2.536,3.367,5.099,6.714,7.688,10.04
			c-3.98-3.551-7.989-7.069-12.056-10.523c-2.345-1.992-5.708,1.239-3.426,3.425c6.276,6.013,12.232,12.318,17.886,18.881
			c-0.713-0.689-1.425-1.378-2.138-2.066c-6.745-6.519-13.586-15.552-22.614-18.885c-2.704-0.998-3.754,2.83-1.809,4.29
			c12.443,9.342,22.838,21.304,32.713,33.585c-13.247-11.924-26.023-24.361-38.282-37.314c-2.115-2.188-5.419,1.131-3.334,3.334
			c2.339,2.471,4.698,4.922,7.074,7.356c11.198,11.712,22.214,23.595,33.056,35.637c-4.259-3.894-8.502-7.805-12.713-11.75
			c-11.554-10.824-23.018-21.76-34.297-32.871c-1.183-1.165-2.963,0.62-1.82,1.82c1.576,1.654,3.163,3.295,4.746,4.941
			c-2.599-2.089-5.214-4.161-7.857-6.2c-2.511-1.937-4.969,2.345-2.489,4.258c20.26,15.626,39.24,32.847,56.763,51.462
			c-18.577-15.064-36.412-31.015-53.433-47.831c-3.047-3.157-6.131-6.28-9.287-9.334c-2.172-2.101-5.357,0.809-3.906,3.087
			c-0.329-0.324-0.653-0.654-0.985-0.976c-2.297-2.233-5.78,1.243-3.517,3.517c1.514,1.523,3.028,3.046,4.543,4.569
			c7.937,8.212,15.155,17.034,21.616,26.405c-11.202-11.504-22.406-23.006-33.596-34.521c-2.235-2.3-5.436,1.077-3.461,3.461
			c6.572,7.939,12.975,16.012,19.221,24.205c-7.986-8.262-15.971-16.524-23.956-24.786c-1.859-1.923-5.509,0.7-3.81,2.94
			l17.498,23.064c-9.772-9.366-19.547-18.73-29.311-28.104c-2.255-2.165-5.34,1.055-3.383,3.383
			c6.736,8.015,13.476,16.027,20.215,24.04c-8.292-8.001-16.424-16.167-24.384-24.505c-2.147-2.249-5.421,1.095-3.389,3.389
			c3.627,4.095,7.254,8.189,10.881,12.284c-5.324-4.927-10.647-9.854-15.971-14.781c-2.258-2.09-5.427,1.096-3.368,3.368
			c5.829,6.434,11.599,12.921,17.338,19.435c-7.791-7.216-15.582-14.432-23.374-21.648c-2.265-2.097-5.31,1.044-3.351,3.351
			c2.838,3.342,5.674,6.686,8.512,10.029c-3.591-3.581-7.179-7.164-10.769-10.746c-2.17-2.165-5.177,1.022-3.303,3.303
			c3.893,4.736,7.783,9.477,11.675,14.214c-5.399-5.397-10.798-10.793-16.197-16.19c-2.159-2.158-5.083,0.999-3.271,3.271
			c4.379,5.493,8.758,10.985,13.137,16.478c-6.042-6.19-12.084-12.38-18.125-18.57c-2.102-2.153-5.134,1.021-3.255,3.255
			c3.656,4.348,7.311,8.696,10.967,13.044c-5.255-5.252-10.51-10.505-15.766-15.757c-2.097-2.096-5.268,1.095-3.246,3.246
			c2.061,2.193,4.094,4.411,6.118,6.636c-4.478-4.355-9.165-8.494-14.195-12.277l-0.011-0.012l-0.002,0.002
			c-0.162-0.122-0.315-0.252-0.478-0.372c-2.249-1.674-4.582,1.823-2.87,3.719c14.049,15.552,27.807,31.359,41.263,47.422
			c-2.537-2.386-5.074-4.773-7.612-7.158c-1.858-2.364-3.715-4.728-5.573-7.092c-10.788-13.728-21.696-28.79-38.963-34.527
			c-2.24-0.744-3.977,2.36-2.294,3.941c14.528,13.641,29.004,27.337,43.479,41.036c3.804,4.833,7.608,9.667,11.412,14.5
			c-19.184-19.207-38.36-38.421-57.565-57.607c-2.223-2.221-5.489,1.112-3.425,3.425c9.529,10.677,19.062,21.35,28.594,32.024
			c-11.806-11.172-23.805-22.145-36.026-32.887c-1.935-1.7-5.349,0.507-3.764,2.904c6.902,10.444,14.664,20.139,22.909,29.415
			c-9.923-10.604-19.843-21.212-29.774-31.809c-2.308-2.463-5.921,1.201-3.688,3.688c14.973,16.68,29.96,33.346,44.948,50.013
			c-8.977-9.312-18.056-18.526-27.244-27.631c-5.822-5.768-11.628-11.57-17.601-17.183c-4.377-4.113-9.133-7.952-15.456-7.601
			c-2.124,0.118-3.184,2.565-1.721,4.154c20.554,22.311,41.51,44.222,63.189,65.447c1.962,1.921,3.935,3.832,5.907,5.744
			c-4.769-4.377-9.536-8.756-14.286-13.152c-21.339-20.606-42.51-41.385-63.501-62.347c-2.349-2.346-5.843,1.196-3.626,3.626
			c19.115,20.959,39.704,40.441,60.641,59.547c3.766,3.64,7.527,7.284,11.304,10.913c11.951,11.481,23.928,22.939,36.018,34.274
			c3.151,2.954,6.337,5.889,9.592,8.741c-27.3-23.937-53.911-48.654-79.787-74.053c-14.392-14.126-28.579-29.105-47.033-37.925
			c-1.121-0.536-2.34-0.155-3.103,0.604c-1.118-1.082-2.238-2.161-3.355-3.243c-1.914-1.854-5.237,0.539-3.763,2.904
			c1.709,2.743,3.469,5.442,5.252,8.122c-2.923-3.087-5.846-6.176-8.761-9.27c-1.953-2.074-5.842,0.758-4.041,3.118
			c0.133,0.174,0.27,0.346,0.403,0.52l-0.001,0c0.002,0.002,0.004,0.004,0.006,0.006c5.296,6.917,10.776,13.663,16.409,20.264
			c-8.602-9.342-17.862-18.011-29.93-22.694c-1.685-0.654-2.943,0.782-3.083,2.286c-0.991-0.939-1.967-1.894-2.962-2.829
			c-2.397-2.253-5.553,1.084-3.545,3.545c7.037,8.622,14.388,16.96,21.965,25.087c-9.708-9.705-19.898-18.889-31.657-26.114
			c-2.617-1.608-4.929,1.906-3.119,4.042c48.117,56.796,104.448,105.772,160.775,154.154c2.308,1.982,4.619,3.961,6.928,5.94
			c-46.489-36.209-89.27-77.122-130.655-119.026c-15.441-15.635-30.723-31.424-45.942-47.273c-2.237-2.329-5.37,1.058-3.461,3.461
			c47.925,60.36,107.623,109.719,165.131,160.506c10.576,9.34,21.082,18.76,31.474,28.304c-4.624-3.08-9.158-6.286-13.618-9.596
			c-22.234-19.5-44.468-39-66.707-58.494c-22.177-20.996-44.322-42.026-66.475-63.049c-3.935-3.998-7.862-8.005-11.771-12.027
			c-15.03-15.462-29.883-31.098-44.568-46.888c-1.887-2.029-4.76,0.546-3.653,2.818c3.744,7.689,9.318,14.118,15.36,20.094
			c6.923,6.846,14.07,13.476,21.132,20.18c-14.82-12.998-29.631-26.005-44.43-39.028c-2.333-2.053-5.535,1.107-3.422,3.422
			c15.266,16.728,31.512,32.416,48.219,47.616c-17.635-15.232-35.608-30.074-53.823-44.615c-1.954-1.56-4.679,0.962-2.816,2.816
			c11.209,11.153,22.431,22.292,33.656,33.429c-10.417-9.102-20.836-18.202-31.253-27.304c-2.005-1.751-4.902,1.064-2.952,2.951
			c13.609,13.163,27.22,26.324,40.829,39.486c-12.645-10.129-25.287-20.262-37.934-30.39c-2.097-1.679-5.071,1.088-3.025,3.025
			c10.155,9.613,20.364,19.168,30.612,28.682c-8.579-6.556-17.157-13.113-25.724-19.685c-1.943-1.49-4.369,1.734-2.604,3.375
			c5.991,5.571,12,11.122,18.008,16.674c-5.261-4.045-10.529-8.083-15.772-12.148c-2.097-1.626-4.743,0.865-2.956,2.956
			c4.621,5.408,9.408,10.659,14.335,15.77c-4.068-3.164-8.174-6.28-12.326-9.337c-1.99-1.465-4.143,1.638-2.559,3.316
			c5.179,5.485,10.356,10.974,15.533,16.461c-3.792-3.218-7.589-6.429-11.378-9.649c-2.074-1.763-4.822,0.936-2.999,2.999
			c7.172,8.118,14.363,16.22,21.557,24.318c-5.754-4.652-11.509-9.304-17.263-13.956c-2.001-1.618-4.814,1.007-2.891,2.891
			c7.44,7.289,14.881,14.576,22.317,21.868c-6.012-4.306-12.022-8.616-18.035-12.921c-1.951-1.396-4.315,1.711-2.558,3.316
			c3.615,3.301,7.23,6.602,10.845,9.903c-2.413-1.639-4.836-3.263-7.28-4.857c-2.128-1.388-4.646,1.826-2.733,3.542
			c13.125,11.77,26.277,23.511,39.437,35.242c-12.003-9.929-24.008-19.855-36.025-29.767c-2.151-1.774-5.196,1.103-3.121,3.121
			c6.73,6.541,13.554,12.977,20.451,19.332c-4.845-3.435-9.822-6.698-14.977-9.729c-2.09-1.229-4.536,1.746-2.646,3.429
			c8.78,7.819,17.612,15.576,26.492,23.277c-7.707-5.923-15.414-11.845-23.121-17.769c-1.982-1.523-4.603,1.858-2.686,3.482
			c10.219,8.657,20.452,17.299,30.687,25.938c-8.988-6.87-17.976-13.74-26.962-20.613c-1.845-1.411-4.223,1.689-2.487,3.224
			c8.925,7.888,17.853,15.773,26.78,23.658c-8.314-5.97-16.793-11.708-25.512-17.105c-1.919-1.188-4.278,1.705-2.464,3.193
			c4.748,3.896,9.495,7.792,14.243,11.687c-3.73-2.778-7.461-5.556-11.191-8.334c-1.814-1.351-4.206,1.717-2.435,3.156
			c7.751,6.297,15.5,12.597,23.251,18.894c-5.804-4.161-11.608-8.322-17.413-12.483c-1.885-1.351-4.248,1.701-2.488,3.225
			c6.102,5.285,12.302,10.455,18.574,15.536c-5.923-3.842-11.843-7.687-17.768-11.527c-1.806-1.17-4.042,1.622-2.335,3.027
			c5.33,4.386,10.662,8.768,15.993,13.151c-3.537-2.529-7.074-5.058-10.611-7.587c-1.647-1.178-3.491,1.373-2.122,2.75
			c4.781,4.809,9.679,9.49,14.689,14.044c-3.568-2.41-7.137-4.82-10.705-7.229c-1.551-1.048-3.437,1.366-2.013,2.609
			c4.568,3.988,9.136,7.977,13.704,11.965c-3.354-2.186-6.709-4.372-10.064-6.558c-1.496-0.975-3.214,1.254-1.908,2.474
			c3.5,3.271,7.005,6.538,10.506,9.808c-4.059-2.725-8.117-5.45-12.176-8.176c-1.428-0.959-2.784,1.095-1.751,2.27
			c2.767,3.149,5.652,6.174,8.628,9.106c-1.452-0.75-2.925-1.467-4.421-2.152c-1.272-0.582-2.636,0.911-1.558,2.019
			c1.106,1.136,2.213,2.271,3.319,3.407c-1.514-0.992-3.03-1.981-4.544-2.971c-0.975-0.637-2.372,0.668-1.654,1.654
			c2.655,3.645,5.741,6.66,9.454,9.216c1.299,0.894,2.527-1.202,1.272-2.106c1.064,0.691,2.129,1.378,3.192,2.07
			c1.15,0.75,2.33-0.903,1.43-1.853l-5.291-5.581c3.503,1.995,6.901,4.166,10.174,6.563c1.262,0.924,2.891-1.17,1.682-2.18
			c-3.692-3.085-7.237-6.32-10.65-9.688c5.669,3.842,11.339,7.684,17.008,11.526c1.43,0.969,3.085-1.21,1.839-2.383
			c-3.721-3.502-7.447-7-11.17-10.5c4.741,3.105,9.482,6.21,14.224,9.315c1.518,0.995,3.342-1.32,1.956-2.536
			c-3.606-3.163-7.212-6.326-10.819-9.489l15.949,10.824c1.587,1.077,3.623-1.495,2.076-2.691
			c-7.279-5.625-14.352-11.492-21.222-17.589c11.103,7.962,22.206,15.924,33.31,23.883c1.643,1.178,3.747-1.518,2.176-2.821
			c-10.458-8.679-20.928-17.343-31.402-26.001c12.078,7.846,24.155,15.694,36.233,23.54c1.533,0.996,2.925-0.451,2.831-1.872
			c1.847,1.322,3.695,2.644,5.543,3.966c1.84,1.316,4.215-1.718,2.438-3.16c-0.277-0.225-0.554-0.451-0.832-0.676
			c1.126,0.839,2.253,1.679,3.379,2.518c1.826,1.36,4.225-1.719,2.45-3.176c-11.943-9.804-23.886-19.609-35.828-29.413
			c13.295,10.441,26.277,21.299,39.246,32.146c1.972,1.649,4.829-1.122,2.859-2.859c-14.064-12.4-28.104-24.827-42.135-37.263
			c16.49,12.65,32.985,25.292,49.504,37.904c1.877,1.433,4.351-1.758,2.538-3.289c-9.651-8.151-19.286-16.321-28.916-24.496
			c11.637,8.921,23.272,17.844,34.915,26.757c1.898,1.453,4.457-1.827,2.575-3.338c-2.287-1.837-4.562-3.689-6.843-5.534
			c3.252,2.214,6.561,4.353,9.952,6.386c2.006,1.203,4.453-1.756,2.564-3.324c-14.886-12.355-29.746-24.754-44.455-37.326
			c16.236,13.335,32.464,26.68,48.653,40.07c1.635,1.352,3.858-0.257,3.519-1.861c1.154-0.053,2.128-1.449,1.023-2.373
			c-14.464-12.098-28.457-24.757-42.016-37.866c16.786,13.69,33.85,27.037,51.187,40.029c1.571,1.177,3.589-1.106,2.728-2.584
			c0.801,0.642,1.601,1.285,2.401,1.927c1.96,1.573,4.773-1.086,2.821-2.821c-11.5-10.221-22.89-20.562-34.197-30.993
			c11.995,9.71,23.987,19.423,35.991,29.122c2.001,1.617,4.804-0.997,2.891-2.891c-5.309-5.256-10.669-10.457-16.079-15.606
			c10.427,7.895,20.945,15.67,31.556,23.321c1.349,0.972,2.894-0.258,3.092-1.623c1.493,1.11,2.97,2.24,4.471,3.34
			c2.046,1.5,4.407-1.738,2.668-3.458c-2.143-2.118-4.301-4.222-6.455-6.328c2.284,1.936,4.568,3.87,6.853,5.804
			c1.492,1.262,3.449,0.161,3.752-1.264l2.474,2.129c2.087,1.796,5.048-1.06,3.059-3.059c-1.441-1.449-2.882-2.898-4.323-4.346
			c1.498,1.186,2.996,2.37,4.504,3.543c1.877,1.461,4.4-0.415,3.688-2.266c1.473,1.341,2.946,2.682,4.42,4.024
			c2.141,1.949,5.084-1.014,3.168-3.168c-3.176-3.57-6.387-7.108-9.609-10.634c4.456,4.041,8.911,8.083,13.367,12.124
			c1.864,1.69,4.295-0.247,3.773-2.218c1.48,0.47,2.798-0.553,3.164-1.746c0.778,0.807,1.566,1.604,2.342,2.413
			c1.197,1.246,2.832,0.494,3.386-0.721c0.431,0.534,0.871,1.061,1.299,1.597c1.107,1.386,3.575-0.491,2.48-1.913
			c-8.075-10.481-16.608-20.511-25.474-30.212c5.68,5.097,11.374,10.179,17.098,15.226c7.064,6.229,14.164,13.724,23.726,15.73
			c2.063,0.433,4.048-1.957,2.798-3.702c1.734,1.012,3.468,2.023,5.225,2.997c2.248,1.246,4.749-1.775,2.801-3.63
			c-8.618-8.204-17.367-16.267-26.182-24.259c10.845,8.056,21.888,15.844,33.147,23.318c2.211,1.468,4.92-1.961,2.865-3.714
			c-5.667-4.834-11.345-9.665-17.024-14.497c8.18,5.923,16.492,11.663,24.94,17.206c2.195,1.44,4.759-1.865,2.814-3.647
			l-7.355-6.736c0.484,0.311,0.963,0.63,1.449,0.939c2.275,1.445,5.002-1.97,2.918-3.782c-4.588-3.991-9.168-7.992-13.753-11.987
			c5.627,4.44,11.28,8.849,16.983,13.193c2.251,1.715,4.781-1.892,2.942-3.813c-3.169-3.309-6.371-6.582-9.595-9.833
			c7.447,6.03,14.967,11.969,22.561,17.814c-0.288-0.052-0.575-0.104-0.862-0.155c-2.73-0.492-4.096,2.776-1.854,4.399
			c2.144,1.552,4.292,3.1,6.433,4.657c1.95,1.418,3.826-0.813,3.37-2.71c0.549,0.101,1.098,0.203,1.647,0.304
			c1.482,0.274,2.523-0.517,2.861-1.567c0.795,0.689,1.6,1.366,2.392,2.057c1.632,1.424,4.008-0.89,2.401-2.401
			c-10.289-9.68-20.897-19.002-31.677-28.131c12.812,10.236,25.932,20.082,39.305,29.576c2.26,1.605,4.788-1.882,2.907-3.768
			c-12.326-12.363-24.835-24.533-37.469-36.572c16.201,13.082,32.656,25.82,49.232,38.424c2.085,1.585,4.72-1.879,2.795-3.622
			c-24.335-22.044-48.815-43.953-73.252-65.913c0.379-0.793,0.346-1.803-0.378-2.648c-1.39-1.62-2.788-3.233-4.182-4.849
			c2.118,0.436,3.781-2.3,2.164-4.107c-1.203-1.343-2.405-2.687-3.607-4.031c1.453-0.646,2.397-2.66,0.968-4.186
			c-21.261-22.701-42.507-45.416-63.755-68.129c21.141,21.661,43.849,41.976,62.717,65.673c1.12,1.407,3.59-0.472,2.514-1.939
			c-24.978-34.036-58.708-60.407-85.238-93.005c27.707,25.12,54.46,51.333,79.925,78.709c2.034,2.186,5.221-1.054,3.261-3.261
			c-10.374-11.677-20.762-23.342-31.148-35.009c8.991,8.971,17.986,17.939,26.966,26.922c2.198,2.199,5.139-1.009,3.322-3.322
			c-5.348-6.806-10.697-13.613-16.045-20.419c3.801,3.591,7.599,7.184,11.404,10.77c2.317,2.183,5.328-1.037,3.419-3.419
			c-0.669-0.835-1.346-1.664-2.017-2.497c1.784,0.458,3.957-1.664,2.694-3.512c-5.916-8.659-12.064-17.15-18.431-25.47
			c4.666,4.664,9.332,9.329,13.998,13.993c2.126,2.125,5.128-1.018,3.251-3.251l-5.189-6.173c2.287,2.344,4.574,4.688,6.862,7.032
			c2.125,2.178,5.067-0.998,3.262-3.262c-5.398-6.773-10.795-13.547-16.193-20.32c6.876,6.876,13.753,13.753,20.63,20.629
			c2.154,2.154,5.141-1.015,3.281-3.281c-3.839-4.678-7.677-9.357-11.516-14.035c5.925,5.926,11.845,11.857,17.774,17.779
			c2.197,2.194,5.32-1.059,3.363-3.363c-6.692-7.88-13.383-15.762-20.075-23.643c8.45,7.829,16.901,15.658,25.351,23.487
			c2.273,2.106,5.31-1.041,3.359-3.359c-4.537-5.391-9.114-10.747-13.711-16.086c5.55,5.139,11.1,10.278,16.651,15.416
			c2.27,2.102,5.413-1.081,3.379-3.379c-0.188-0.213-0.377-0.425-0.565-0.638c2.189,1.971,4.388,3.932,6.598,5.88
			c2.339,2.062,5.378-1.038,3.395-3.395c-5.253-6.245-10.507-12.489-15.76-18.734c6.315,6.062,12.632,12.122,18.947,18.184
			c1.884,1.809,5.495-0.659,3.783-2.919c-3.81-5.028-7.62-10.057-11.43-15.085c6.714,6.954,13.428,13.909,20.142,20.863
			c1.885,1.952,5.453-0.638,3.841-2.964c-4.093-5.907-8.276-11.749-12.53-17.538c5.921,6.099,11.846,12.194,17.767,18.294
			c2.001,2.061,5.225-0.559,3.901-3.01c-2.3-4.254-4.75-8.416-7.332-12.491c5.206,5.236,10.411,10.47,15.617,15.706
			c1.935,1.946,5.609-0.66,3.918-3.023c-2.376-3.32-4.82-6.586-7.296-9.827c3.298,2.883,6.625,5.735,9.975,8.558
			c-1.776,0.528-2.745,3.43-0.693,4.861c0.208,0.145,0.408,0.299,0.615,0.445c-0.823,0.903-1.087,2.329-0.006,3.501
			c5.824,6.317,11.649,12.633,17.473,18.95c-4.548-3.41-9.095-6.821-13.642-10.232c-2.404-1.803-4.915,1.957-3.077,3.988
			c5.225,5.776,10.454,11.549,15.68,17.324c-3.537-2.821-7.076-5.641-10.613-8.464c-2.464-1.966-5.554,1.024-3.483,3.483
			c4.678,5.554,9.355,11.108,14.032,16.662c-4.271-3.676-8.543-7.35-12.814-11.025c-2.34-2.014-5.623,1.158-3.426,3.426
			c7.164,7.393,14.118,14.979,20.855,22.752c-3.307-2.941-6.614-5.882-9.921-8.823c-2.341-2.082-5.409,1.049-3.411,3.411
			c7.752,9.16,15.503,18.322,23.254,27.483c-7.15-5.696-14.009-11.749-20.554-18.17c-2.238-2.196-5.297,1.044-3.378,3.378
			c6.397,7.786,12.793,15.572,19.19,23.358c-5.787-5.2-11.424-10.567-16.898-16.11c-2.192-2.22-5.174,1.018-3.339,3.339
			c8.065,10.201,16.13,20.403,24.195,30.604c-7.854-6.877-15.424-14.073-22.683-21.597c-1.786-1.851-5.273,0.658-3.66,2.824
			c6.563,8.818,13.128,17.636,19.692,26.454c-7.686-8.052-15.373-16.105-23.058-24.158c-2.062-2.161-5.087,1.01-3.231,3.231
			c9.485,11.354,18.664,22.951,27.551,34.77c-11.597-12.044-23.176-24.106-34.719-36.203c-2.022-2.119-5.124,1.039-3.196,3.196
			c6.57,7.352,13.137,14.708,19.664,22.099c-8.654-8.169-17.42-16.219-26.307-24.137c-2.16-1.924-5.336,1.197-3.196,3.196
			c12.2,11.395,23.719,23.473,34.507,36.177c-13.404-13.467-26.809-26.935-40.213-40.402c-2.062-2.072-5.164,1.063-3.196,3.196
			c4.297,4.656,8.596,9.308,12.894,13.963c-5.51-5.276-11.021-10.551-16.531-15.827c-2.042-1.955-4.98,1.014-3.091,3.091
			c12.244,13.463,24.235,27.153,35.978,41.053c-16.039-14.597-32.079-29.195-48.118-43.792c-1.818-1.655-4.586,0.419-3.406,2.628
			c2.742,5.131,6.289,9.741,10.203,14.074c-5.863-5.006-11.86-9.849-17.821-14.635c-2.047-1.643-4.991,1.173-2.938,2.938
			c10.961,9.42,21.9,18.867,32.839,28.314c8.197,8.032,15.744,16.649,22.064,26.229c-20.91-18.452-41.426-37.345-61.342-56.872
			c-1.373-1.346-3.467,0.746-2.11,2.11c22.703,22.83,46.039,45.021,70.266,66.231c1.768,1.548,4.343-0.373,3.25-2.508
			c-2.866-5.599-6.159-10.878-9.776-15.902c6.125,5.288,12.246,10.581,18.378,15.862c2.087,1.797,5.076-1.088,3.06-3.06
			l-33.592-32.85c-1.758-1.719-3.57-3.43-5.398-5.148c14.715,13.395,29.431,26.789,44.145,40.186c2.108,1.92,4.813-0.93,3.075-3.075
			c-7.24-8.937-14.587-17.784-22.028-26.55c10.71,10.274,21.42,20.548,32.13,30.822c1.444,1.385,3.337,0.344,3.713-1.128
			c0.144,0.145,0.288,0.289,0.432,0.434c1.754,1.763,5.076-0.593,3.549-2.739c-4.688-6.59-9.559-13.04-14.596-19.354
			c5.953,5.877,11.853,11.808,17.686,17.805c1.911,1.965,4.554-0.545,3.521-2.678c1.779,0.681,4.111-1.372,2.809-3.245
			c-5.435-7.816-10.999-15.541-16.683-23.174c5.161,5.414,10.322,10.827,15.482,16.24
			C597.138,303.026,600.592,300.525,599.001,298.384z M411.256,315.946c-3.819-4.048-7.702-8.033-11.634-11.971
			c-8.579-9.341-17.318-18.532-26.234-27.551c-18.031-18.239-36.766-35.77-56.114-52.604c-1.65-1.436-4.507-0.092-3.833,2.231
			c1.151,3.972,3.095,7.41,5.501,10.516c-1.215,0.662-1.886,2.287-0.565,3.485c9.21,8.353,18.42,16.706,27.629,25.06
			c9.279,8.706,18.395,17.583,27.356,26.615c-17.926-16.307-35.851-32.614-53.777-48.921c-2.1-1.911-5.189,1.131-3.133,3.133
			c1.49,1.451,2.979,2.902,4.469,4.353c-1.316,0.478-2.199,2.252-0.945,3.613c12.241,13.285,24.989,26.085,38.207,38.38
			c1.25,1.255,2.5,2.511,3.75,3.767c-15.601-13.428-31.203-26.854-46.802-40.285c-2.096-1.805-4.992,1.008-3.062,3.062
			c1.222,1.301,2.457,2.588,3.692,3.876c-1.971-0.393-3.957,1.963-2.103,3.569c16.545,14.336,32.794,29.006,48.743,43.998
			c-3.736-3.06-7.444-6.153-11.121-9.284c-13.917-12.791-27.836-25.581-41.776-38.347c-2.087-1.911-5.15,1.111-3.12,3.12
			c14.111,13.955,28.772,27.327,43.915,40.129c1.551,1.415,3.1,2.833,4.651,4.248c-18.094-13.724-35.888-27.841-53.38-42.33
			c-2.064-1.71-5.051,1.225-2.972,2.972c9.763,8.205,19.382,16.576,28.868,25.093c-11.862-9.559-23.721-19.12-35.561-28.706
			c-1.944-1.574-4.692,0.996-2.81,2.81c8.607,8.294,17.301,16.497,26.035,24.658L283.02,268.86
			c-1.917-1.539-4.622,0.927-2.941,2.704c-1.09-0.932-2.186-1.856-3.273-2.791c-1.875-1.612-4.464,0.902-2.737,2.737
			c2.533,2.694,5.093,5.359,7.668,8.009c-9.018-8.086-18.032-16.177-27.061-24.251c3.231,2.512,6.431,5.065,9.596,7.666
			c2.122,1.745,5.174-1.162,3.073-3.073c-5.921-5.384-11.842-10.768-17.762-16.152c3.561,2.535,7.118,5.074,10.681,7.607
			c1.913,1.36,4.106-1.615,2.475-3.208c-3.46-3.38-6.91-6.77-10.365-10.155c1.129,0.916,2.258,1.831,3.387,2.747
			c2.059,1.67,4.748-0.903,2.944-2.944c-6.229-7.042-12.452-14.09-18.679-21.134c5.874,4.973,11.754,9.94,17.626,14.917
			c2.036,1.726,4.837-0.973,2.962-2.962c-7.581-8.042-15.161-16.086-22.742-24.128c6.4,5.215,12.69,10.566,18.867,16.055
			c1.058,0.94,2.374,0.591,3.122-0.216c0.473,0.39,0.935,0.79,1.41,1.178c1.427,1.164,3.471-0.769,2.065-2.064
			c-9.606-8.845-18.934-17.983-27.95-27.42c10.876,8.248,21.73,16.526,32.529,24.867c1.823,1.408,4.1-1.626,2.448-3.173
			c-5.772-5.406-11.561-10.794-17.347-16.185c8.957,6.838,17.912,13.678,26.868,20.516c1.905,1.454,4.307-1.713,2.555-3.312
			c-8.179-7.466-16.319-14.973-24.443-22.498c9.977,7.965,19.953,15.931,29.92,23.909c2.039,1.632,4.911-1.033,2.941-2.941
			c-4.477-4.335-8.959-8.665-13.437-12.999c6.452,5.638,12.903,11.275,19.355,16.913c2.009,1.756,4.892-1.043,2.958-2.958
			c-16.95-16.788-33.91-33.565-50.879-50.332c20.318,17.117,40.182,34.773,59.699,52.798c0.695,0.642,1.506,0.698,2.19,0.429
			c38.884,34.429,76.48,70.286,112.62,107.591C418.893,322.291,414.938,319.291,411.256,315.946z M335.211,246.053
			c-3.638-2.938-7.326-6.013-10.436-9.475C328.273,239.715,331.755,242.87,335.211,246.053z M420.946,316.049
			c-26.172-26.813-53.063-52.921-80.673-78.246c17.186,14.973,34.16,30.176,50.395,46.171
			C401.144,294.295,411.285,304.962,420.946,316.049z M288.836,134.675c-1.065-1.707-2.095-3.441-3.091-5.202
			c12.598,7.109,22.006,19.17,31.571,29.762c12.244,13.558,24.792,26.843,37.631,39.84c7.873,7.969,15.868,15.818,23.956,23.569
			c-8.513-7.314-17.043-14.621-25.532-21.974c-11.731-12.117-23.365-24.313-35.071-36.367
			C308.598,154.309,298.799,144.408,288.836,134.675z M336.705,172.888c32.866,33.972,68.996,64.845,103.609,97.033
			c3.851,3.581,7.684,7.182,11.495,10.806C411.215,247.249,372.727,211.248,336.705,172.888z M304.311,170.364
			c-8.853-9.027-17.516-18.233-25.974-27.625c8.14,7.236,15.695,15.169,23.261,23.016c13.522,14.025,27.079,28.018,40.838,41.811
			C329.483,195.408,316.741,183.038,304.311,170.364z M320.076,177.573c2.663,2.427,5.359,4.826,8.076,7.209
			c6.106,5.784,12.268,11.508,18.456,17.197c3.102,2.852,6.212,5.696,9.318,8.544c23.042,23.643,46.552,46.792,71.982,67.923
			c6.002,4.987,12.112,9.843,18.331,14.554c2.392,2.184,4.784,4.369,7.176,6.553C405.068,263.58,361.977,220.841,320.076,177.573z
			 M395.746,219.784c-18.269-17.454-36.182-35.283-53.82-53.352c-2.517-2.578-5.021-5.168-7.528-7.756
			c-5.635-6.714-11.04-13.617-16.183-20.711c23.161,22.418,46.302,44.857,69.45,67.288c24.12,23.372,48.278,46.746,73.738,68.659
			C439.421,255.968,417.145,238.361,395.746,219.784z M497.622,296.995c-51.364-40.369-97.582-86.647-144.585-132.059
			c-0.121-0.117-0.242-0.234-0.363-0.351c41.689,37.099,83.403,74.19,124.029,112.434
			C483.724,283.628,490.696,290.289,497.622,296.995z M457.145,247.574c9.572,8.625,19.14,17.255,28.715,25.878
			c-15.7-12.856-31.188-25.978-46.459-39.347C445.027,238.979,450.876,243.581,457.145,247.574z M401.947,182.751
			c4.613,4.85,9.197,9.73,13.758,14.631c-5.72-5.417-11.408-10.867-17.048-16.366c-19.11-18.631-37.819-37.706-55.921-57.325
			c3.932,2.668,7.341,6.835,10.366,9.765c5.468,5.298,10.901,10.632,16.298,16.003C380.401,160.406,391.251,171.505,401.947,182.751
			z"/>
		<path style="fill:#D9D9D9;" d="M557.375,226.878c-11.74-11.508-23.465-23.041-34.911-34.84c8.245,7.055,16.332,14.295,24.25,21.72
			c2.407,2.257,5.949-1.261,3.628-3.628c-5.821-5.939-11.643-11.879-17.464-17.819c2.88,2.508,5.725,5.058,8.525,7.661
			c2.458,2.285,6.071-1.294,3.694-3.694l-3.792-3.827c1.137,0.857,2.266,1.725,3.406,2.578c2.542,1.901,5.145-2.053,3.237-4.195
			c-3.653-4.099-7.305-8.199-10.958-12.298c2.659,1.903,5.318,3.806,7.978,5.708c2.543,1.819,5.383-2.117,3.275-4.244
			c-0.737-0.743-1.474-1.487-2.211-2.23c1.091-1.004,1.557-2.859,0.294-4.065c-0.7-0.668-1.4-1.336-2.1-2.004
			c0.729-0.835,1.016-2.047,0.328-3.122c-0.479-0.749-0.982-1.477-1.485-2.204l0.349,0.149c2.895,1.235,5.235-1.728,3.381-4.238
			c1.511-0.836,2.257-2.494,1.378-4.472c-1.445-3.253-6.593-4.604-9.705-5.413c-2.885-0.751-4.274,2.547-2.678,4.601
			c0.137,0.176,0.273,0.351,0.409,0.527c-0.264-0.112-0.528-0.225-0.792-0.337c-2.145-0.913-4.396,0.788-4.128,2.734
			c-0.781-0.163-1.532,0.091-2.117,0.576c-0.543-0.418-1.085-0.835-1.628-1.253c-2.09-1.608-4.47,0.994-3.926,3.128
			c-1.093-0.78-2.185-1.561-3.278-2.341c-2.598-1.856-5.188,2.058-3.257,4.222c2.681,3.004,5.362,6.007,8.043,9.011
			c-4.626-3.658-9.231-7.343-13.795-11.08c-2.585-2.116-6.191,1.275-3.741,3.741c0.012,0.012,0.024,0.024,0.035,0.036
			c-0.748-0.526-1.489-1.061-2.241-1.582c-2.466-1.708-5.151,2.018-3.139,4.068c0.718,0.732,1.436,1.463,2.155,2.195
			c-2.167-1.71-4.346-3.406-6.532-5.091c-0.003-0.004-0.006-0.007-0.01-0.011c0,0-0.001,0.001-0.002,0.002
			c-0.171-0.132-0.341-0.267-0.512-0.399c-2.397-1.844-4.873,1.953-3.077,3.988c2.944,3.338,5.935,6.631,8.945,9.905
			c-6.786-5.686-13.622-11.312-20.517-16.868c-2.457-1.979-5.594,1.046-3.491,3.491c8.82,10.262,17.902,20.284,27.14,30.161
			c-12.252-10.879-24.502-21.759-36.755-32.637c-2.323-2.063-5.636,1.178-3.434,3.434c2.508,2.568,5.028,5.124,7.549,7.679
			c-1.414-1.104-2.833-2.202-4.259-3.294c-0.001-0.001-0.002-0.001-0.002-0.002l0,0c-0.159-0.122-0.316-0.246-0.475-0.367
			c-2.137-1.633-4.722,1.868-2.843,3.684c1.48,1.43,2.965,2.855,4.445,4.285c-0.701-0.306-1.404-0.608-2.122-0.882
			c-2.351-0.896-3.609,2.294-2.252,3.868c5.493,6.373,11.068,12.672,16.707,18.912c-5.991-5.356-12.339-10.287-19.535-13.385
			c-2.19-0.943-4.431,1.489-2.645,3.428c5.618,6.099,11.337,12.102,17.132,18.028c-2.924-2.401-5.848-4.801-8.771-7.202
			c-1.706-1.401-4.891,0.469-3.346,2.581c4.998,6.832,10.434,13.275,16.13,19.483c-3.785-3.024-7.572-6.046-11.357-9.071
			c-2.053-1.64-4.509,0.817-2.871,2.871c3.051,3.827,6.201,7.565,9.444,11.217c-1.523-1.051-3.045-2.105-4.586-3.132
			c-1.925-1.283-3.729,1.466-2.351,3.047c3.527,4.049,7.062,8.091,10.597,12.133c-2.803-1.703-5.604-3.408-8.41-5.104
			c-1.741-1.052-3.834,1.501-2.222,2.88c1.989,1.701,3.877,3.486,5.692,5.34c-0.976-0.48-1.952-0.96-2.928-1.44
			c-1.792-0.881-3.623,1.286-2.172,2.815c0.891,0.94,1.799,1.862,2.695,2.797c-1.357-0.218-2.456,0.299-2.786,2.486
			c-0.418,2.77,2.614,3.339,4.19,1.709c1.186,0.734,2.367,1.544,2.409,1.567c1.098,0.602,1.802,0.672,3.005,0.571
			c1.453-0.122,2.219-1.749,1.19-2.872c-0.488-0.533-0.986-1.056-1.475-1.588c0.789,0.391,1.577,0.781,2.366,1.171
			c1.919,0.95,3.451-1.246,2.193-2.842c-0.487-0.618-0.997-1.209-1.498-1.811c2.018,1.227,4.035,2.456,6.052,3.685
			c1.872,1.14,3.566-1.371,2.241-2.904c-2.658-3.075-5.31-6.155-7.961-9.235c3.884,2.889,7.709,5.858,11.473,8.914
			c1.956,1.589,4.744-1.031,2.829-2.829c-4.335-4.07-8.522-8.28-12.577-12.613c7.682,6.161,15.364,12.32,23.045,18.482
			c2.04,1.637,4.924-1.047,2.944-2.944c-9.773-9.365-19.564-18.773-28.571-28.872c12.236,10.059,24.473,20.117,36.709,30.177
			c2.105,1.73,5.138-1.174,3.043-3.043c-16.135-14.398-31.686-29.424-46.645-45.03c6.803,5.51,13.027,12.007,19.277,17.643
			c11.173,10.075,22.346,20.15,33.518,30.227c2.145,1.935,5.276-1.14,3.19-3.19c-18.648-18.329-36.624-37.325-53.908-56.943
			c9.925,6.679,18.375,16.29,26.791,24.233c12.437,11.739,24.874,23.478,37.311,35.217c2.19,2.068,5.491-1.214,3.313-3.313
			c-6.24-6.013-12.477-12.028-18.714-18.043c6.754,6.374,13.55,12.702,20.39,18.985c2.252,2.068,5.614-1.266,3.367-3.367
			c-1.359-1.271-2.719-2.542-4.079-3.812c1.898,1.687,3.797,3.375,5.695,5.062c2.344,2.083,5.703-1.201,3.468-3.467
			c-17.103-17.34-34.189-34.713-50.701-52.615c16.79,14.22,33.247,28.829,49.343,43.835
			C556.186,232.618,559.69,229.146,557.375,226.878z"/>
		<path style="fill:#D9D9D9;" d="M602.74,670.892c-2.255-5.937-11.508-8.18-17.018-8.793c-2.215-0.247-3.246,2.482-2.378,4.145
			c1.07,2.049,2.204,4.052,3.388,6.019c-3.265-2.407-6.529-4.814-9.794-7.221c-2.157-1.59-5.398,1.601-3.758,3.758
			c0.972,1.279,1.944,2.559,2.917,3.838l-18.072-15.461c-2.731-2.336-6.005,1.124-3.869,3.868
			c4.39,5.639,8.779,11.277,13.169,16.916c-8.781-6.952-17.318-14.206-25.609-21.752c-2.584-2.352-6.29,1.309-3.849,3.849
			c6.213,6.462,12.049,13.237,17.52,20.301c-10.643-8.8-20.942-18.012-30.872-27.618c-2.115-2.046-6.149,0.729-4.25,3.279
			c5.934,7.968,12.003,15.832,18.18,23.61c-11.385-9.387-22.221-19.426-32.454-30.087c-2.066-2.153-6.147,0.792-4.246,3.276
			c7.082,9.25,14.163,18.501,21.245,27.751c-11.856-10.078-22.821-21.168-32.823-33.138c-2.007-2.402-5.732,0.676-4.245,3.275
			c4.266,7.459,8.907,14.679,13.865,21.672c-11.617-10.405-23.235-20.809-34.853-31.214c-2.574-2.306-5.955,1.157-3.759,3.759
			c3.069,3.637,6.136,7.275,9.204,10.913c-4.956-4.89-9.913-9.779-14.869-14.669c-2.334-2.302-5.539,1.092-3.533,3.533
			c0.554,0.674,1.13,1.325,1.69,1.992c-3.779-2.833-7.557-5.665-11.336-8.498c-1.951-1.463-4.737,1.411-3.359,3.359
			c2.587,3.656,5.178,7.309,7.769,10.963c-3.257-2.364-6.517-4.724-9.77-7.094c-2.287-1.666-4.837,1.906-2.955,3.83
			c1.128,1.153,2.202,2.339,3.228,3.556c-4.623-3.313-9.247-6.626-13.87-9.939c-2.405-1.724-4.632,1.862-2.966,3.844
			c2.327,2.769,4.653,5.537,6.979,8.306c-6.006-4.007-12.011-8.017-18.023-12.015c-2.38-1.583-4.76,1.857-2.95,3.823
			c1.423,1.546,2.846,3.091,4.268,4.636c-3.531-2.369-7.127-4.639-10.808-6.765c-2.136-1.234-4.814,1.93-2.733,3.542
			c12.119,9.391,24.216,18.809,36.363,28.164c1.284,0.989,2.993-1.211,1.743-2.259c-1.024-0.858-2.052-1.71-3.077-2.567
			c1.002-0.764,1.433-2.25,0.286-3.503l-8.977-9.807c5.169,3.448,10.336,6.9,15.506,10.347c2.451,1.635,4.641-1.839,2.961-3.838
			c-1.824-2.171-3.648-4.344-5.471-6.515c3.072,2.203,6.144,4.405,9.216,6.608c2.119,1.519,4.423-1.361,3.356-3.356
			c-0.406-0.76-0.827-1.509-1.259-2.249c2.737,1.988,5.477,3.973,8.215,5.96c1.947,1.413,4.704-1.384,3.329-3.329
			c-2.435-3.442-4.866-6.886-7.297-10.331c4.804,3.602,9.609,7.204,14.413,10.805c-1.806,0.102-2.948,2.936-1.659,4.601
			c3.965,5.123,8.017,10.175,12.151,15.158c-1.278-1.051-2.556-2.102-3.834-3.153c-2.021-1.662-5.863,0.595-3.98,3.07
			c2.618,3.44,5.242,6.901,7.609,10.517c-4.024-3.526-8.046-7.052-12.071-10.576c-2.123-1.859-5.454,0.47-3.991,3.079
			c1.388,2.474,2.775,4.948,4.163,7.422c-3.996-3.202-7.99-6.405-11.99-9.602c-2.094-1.674-5.609,0.428-3.979,3.07
			c1.121,1.817,2.273,3.608,3.456,5.377c-3.128-2.453-6.267-4.891-9.444-7.275c-1.144-0.858-2.382-0.249-2.998,0.77
			c-19.334-16.426-39.514-31.829-60.467-46.143c-2.548-1.741-5.592,2.209-3.302,4.28c2.943,2.661,5.777,5.428,8.505,8.292
			c-6.631-4.284-13.262-8.568-19.893-12.852c-2.824-1.824-5.047,2.027-3.302,4.28c3.424,4.422,6.848,8.845,10.272,13.268
			c-6.297-4.189-12.593-8.378-18.89-12.567c-2.68-1.783-5.336,2.084-3.315,4.297c2.861,3.134,5.723,6.268,8.584,9.401
			c-7.294-5.148-14.737-10.086-22.34-14.788c-2.611-1.615-5.751,2.261-3.34,4.328c5.848,5.015,11.7,10.025,17.549,15.038
			c-10.539-7.666-21.078-15.333-31.617-22.999c-2.287-1.663-5.035,1.519-3.731,3.731c7.471,12.673,19.561,21.942,30.368,31.621
			c0.229,0.205,0.458,0.41,0.687,0.615c-12.995-9.322-25.99-18.644-38.984-27.966c-2.472-1.773-5.57,2.231-3.264,4.23
			c6.478,5.615,13.01,11.167,19.582,16.669c-9.465-6.364-18.93-12.729-28.394-19.093c-2.474-1.663-5.495,2.188-3.211,4.161
			c11.835,10.224,23.678,20.438,35.519,30.655c-15.479-10.181-30.959-20.36-46.438-30.541c-2.423-1.594-5.372,2.135-3.132,4.059
			c8.216,7.06,16.439,14.113,24.658,21.172c-17.189-11.431-34.379-22.863-51.568-34.294c-2.323-1.545-5.216,2.1-3.019,3.912
			c11.689,9.642,23.375,19.286,35.061,28.931c-14.351-9.501-28.708-18.993-43.05-28.508c-2.28-1.513-5.115,2.057-2.962,3.838
			c13.545,11.201,27.088,22.405,40.632,33.609c-16.701-10.442-33.402-20.884-50.111-31.313c-2.296-1.433-5.027,1.969-2.934,3.802
			c10.435,9.146,20.87,18.292,31.304,27.438l-39.132-25.864c-2.247-1.485-4.79,1.868-2.863,3.711
			c7.917,7.573,15.833,15.146,23.754,22.713c-10.383-7.044-20.763-14.092-31.151-21.128c-2.225-1.507-4.087,1.648-2.656,3.442
			c3.878,4.861,7.944,9.551,12.176,14.082c-5.253-2.995-10.683-5.683-16.318-7.969c-1.629-0.661-2.998,1.836-1.713,2.942
			c4.328,3.726,8.656,7.451,12.984,11.177c1.283,1.104,3.135-0.686,1.881-1.881c-1.277-1.216-2.554-2.432-3.831-3.649
			c8.424,4.557,16.454,9.742,23.963,15.807c2.042,1.649,4.975-1.133,2.942-2.942c-6.453-5.746-12.585-11.809-18.383-18.185
			c13.473,9.184,26.951,18.361,40.404,27.576c2.163,1.482,4.628-1.814,2.776-3.598c-8.173-7.876-16.362-15.735-24.555-23.589
			c15.512,10.269,31.024,20.538,46.535,30.807c2.246,1.487,4.95-1.959,2.9-3.758c-11.766-10.328-23.532-20.656-35.298-30.984
			c18.561,11.597,37.125,23.188,55.682,34.792c2.281,1.426,5.079-2.022,2.932-3.8c-11.141-9.225-22.281-18.451-33.422-27.676
			c14.589,9.667,29.183,19.325,43.768,28.998c2.291,1.52,5.14-2.067,2.976-3.857c-11.228-9.284-22.46-18.564-33.691-27.844
			c15.268,10.178,30.535,20.357,45.803,30.535c2.385,1.59,5.294-2.106,3.09-4.005c-8.54-7.357-17.09-14.702-25.635-22.053
			c15.376,10.115,30.753,20.228,46.123,30.353c2.437,1.606,5.393-2.14,3.149-4.081c-10.824-9.364-21.649-18.726-32.472-28.092
			c14.755,9.932,29.511,19.864,44.266,29.795c2.921,1.966,5.342-2.579,2.698-4.615c-1.217-0.937-2.426-1.884-3.639-2.824
			c3.975,2.854,7.949,5.707,11.924,8.561c2.498,1.793,5.567-2.215,3.286-4.259c-12.135-10.877-24.27-21.753-36.405-32.63
			c-5.749-5.152-11.974-10.202-17.676-15.701c23.317,16.972,46.634,33.945,69.952,50.917c2.505,1.823,5.687-2.286,3.325-4.31
			c-8.762-7.512-17.524-15.023-26.285-22.536c2.388,0.531,4.662-2.25,2.603-4.503c-4.538-4.966-9.075-9.931-13.613-14.897
			c4.703,3.126,9.406,6.252,14.109,9.378c2.808,1.867,5.043-2.042,3.306-4.284c-3.563-4.599-7.125-9.199-10.687-13.799
			c7.285,4.706,14.57,9.413,21.855,14.119c2.185,1.412,5.387-1.511,3.728-3.728c-0.826-1.104-1.666-2.195-2.517-3.276
			c12.418,9.178,24.536,18.753,36.335,28.721c-3.064-1.263-6.051-2.691-8.957-4.271c-5.37-4.113-10.934-7.974-16.685-11.57
			c-2.561-1.601-5.633,2.215-3.279,4.249c1.459,1.26,2.949,2.476,4.468,3.645c-1.096-0.596-2.192-1.191-3.288-1.786
			c-2.667-1.449-5.557,2.055-3.298,4.274c2.483,2.44,5.039,4.794,7.651,7.081c-5.497-2.558-10.995-5.116-16.492-7.674
			c-2.646-1.231-5.758,2.039-3.32,4.303c2.807,2.608,5.614,5.217,8.422,7.825c-0.729,0.956-0.853,2.277,0.335,3.281
			c3.701,3.128,7.629,5.82,11.942,8.039c2.662,1.37,5.717-2.097,3.328-4.314c-0.651-0.604-1.302-1.209-1.953-1.813
			c-0.104-0.664-0.502-1.286-1.311-1.695c-0.381-0.193-0.761-0.389-1.142-0.582c-1.044-0.969-2.088-1.938-3.132-2.907
			c7.878,3.661,15.755,7.322,23.633,10.984c3.159,1.468,5.734-2.761,2.755-4.714c-2.333-1.529-4.622-3.113-6.872-4.746
			c3.665,1.989,7.329,3.978,10.994,5.967c2.631,1.428,5.607-2.088,3.286-4.259c-0.56-0.524-1.132-1.033-1.698-1.551
			c1.985,0.64,3.994,1.223,6.03,1.739c1.861,2.526,3.858,4.952,6.026,7.247c1.114,1.179,3.269-0.396,2.293-1.769
			c-1.676-2.358-3.281-4.747-4.809-7.181c4.713,3.748,9.458,7.458,14.164,11.207c2.466,1.965,5.478-0.997,3.464-3.464
			c-1.574-1.928-3.09-3.899-4.579-5.889c3.01,2.412,6.018,4.827,9.028,7.239c2.149,1.722,5.494-0.399,3.991-3.079
			c-1.11-1.978-2.219-3.957-3.329-5.935c3.724,3.254,7.448,6.509,11.171,9.763c1.703,1.488,5.216,0.096,4.216-2.454
			c-1.181-3.013-2.607-5.864-4.187-8.62c4.705,3.879,9.411,7.758,14.116,11.637c2.508,2.067,5.888-1.156,3.616-3.616
			c-5.68-6.153-11.225-12.424-16.63-18.816c5.604,4.925,11.076,10.002,16.406,15.23c1.585,1.555,3.675,0.539,4.296-1.037
			c0.57,0.567,1.142,1.13,1.712,1.697c2.408,2.396,5.783-1.146,3.671-3.671c-7.011-8.379-14.046-16.737-21.086-25.092
			c10.341,9.274,20.682,18.547,31.023,27.821c2.572,2.306,6.135-1.235,3.795-3.795c-6.05-6.621-11.719-13.545-17.032-20.73
			c9.179,8.771,18.939,16.928,29.259,24.397c2.127,1.54,5.328-1.57,3.699-3.699c-4.425-5.78-8.849-11.559-13.273-17.339
			c8.637,7.513,17.609,14.64,26.892,21.376c2.65,1.923,5.105-2.059,3.276-4.246c-4.609-5.512-9.137-11.089-13.615-16.705
			c7.776,6.692,15.744,13.161,23.893,19.412c2.185,1.675,5.137-1.552,3.714-3.714c-2.628-3.995-5.376-7.902-8.216-11.738
			c5.824,4.633,11.748,9.144,17.776,13.518c2.737,1.986,5.028-2.075,3.307-4.287l-9.338-12.003l17.004,14.555
			c2.183,1.869,6.319-0.674,4.307-3.323c-2.284-3.007-4.568-6.014-6.852-9.021c2.679,1.976,5.357,3.952,8.036,5.928
			c2.701,1.993,5.149-2.096,3.334-4.321c-1.727-2.117-3.361-4.292-4.913-6.521C599.217,679.064,604.453,675.403,602.74,670.892z
			 M476.277,668.715c-0.153,0.133-0.295,0.276-0.415,0.436c-0.448-0.362-0.897-0.722-1.346-1.082
			c0.332,0.034,0.658-0.022,0.961-0.147C475.744,668.186,476.01,668.451,476.277,668.715z M594.84,674.765
			c-1.303-1.925-2.548-3.888-3.731-5.893c0.281,0.104,0.562,0.198,0.842,0.315c0.835,0.307,1.634,0.691,2.397,1.151
			c0.7,0.52,1.454,0.908,2.253,1.188C595.326,672.058,594.426,673.447,594.84,674.765z"/>
		<g>
			<path style="fill:#1D1D1B;" d="M598.445,287.65c-4.243-51.361-9.036-102.626-15.031-153.816
				c-0.749-6.398-1.52-12.793-2.331-19.184c-0.052-0.407-0.238-0.722-0.488-0.953c1.487-8.794-3.169-18.262-11.564-21.813
				c-5.96-2.52-12.672-1.827-18.955-1.405c-7.264,0.488-14.522,1.063-21.775,1.699c-29.765,2.61-59.449,6.138-89.138,9.48
				c-59.776,6.729-119.541,13.543-179.323,20.216c-8.412,0.939-16.822,1.9-25.238,2.801c-3.985,0.427-7.974,0.822-11.955,1.284
				c-2.748,0.318-5.65,0.685-7.872,2.48c-4.613,3.727-2.833,11.076-2.448,16.128c0.49,6.43,0.881,12.897,1.668,19.303
				c0.903,25.412,3.056,50.807,5.275,76.134c2.246,25.636,4.79,51.246,7.68,76.818c0.722,6.393,1.467,12.783,2.235,19.171
				c0.585,4.866,0.614,10.55,3.671,14.641c4.926,6.591,14.481,5.854,21.683,4.876c25.755-3.498,51.503-7.026,77.288-10.293
				c51.21-6.488,102.507-12.283,153.875-17.375c25.574-2.535,51.164-4.893,76.768-7.099c6.401-0.552,12.803-1.093,19.206-1.623
				c4.439-0.368,9.608-0.267,13.492-2.785c3.575-2.318,4.654-6.37,4.646-10.422C599.804,299.846,598.945,293.693,598.445,287.65z
				 M591.718,314.025c-5.008,1.967-11.37,1.551-16.664,1.996c-24.728,2.076-49.44,4.325-74.138,6.734
				c-49.174,4.798-98.288,10.222-147.324,16.268c-24.12,2.974-48.227,6.072-72.303,9.385c-6.144,0.846-12.286,1.706-18.428,2.566
				c-5.307,0.743-10.691,1.838-16.068,1.816c-4.622-0.018-9.786-1.028-12.102-5.511c-1.344-2.602-1.497-5.805-1.843-8.644
				c-0.375-3.083-0.746-6.167-1.112-9.252c-5.834-49.145-10.358-98.415-13.907-147.776c-0.372-5.173-0.805-10.34-1.256-15.506
				c-0.045-5.858-0.503-11.72-0.913-17.563c-0.232-3.31-0.494-6.619-0.697-9.93c-0.195-3.174-0.339-6.782,2.921-8.481
				c2.698-1.405,6.466-1.291,9.414-1.631c3.764-0.434,7.526-0.88,11.291-1.306c6.64-0.751,13.283-1.478,19.925-2.217
				c27.672-3.078,55.346-6.135,83.02-9.196c54.996-6.083,109.978-12.473,165.025-18.066c15.144-1.539,30.309-2.911,45.5-3.889
				c6.939-0.447,14.717-0.921,20.174,4.199c4.506,4.228,6.446,10.667,4.902,16.645c-0.264,1.021,0.416,1.734,1.21,1.921
				c5.532,48.546,10.568,97.138,14.633,145.831c1.034,12.389,1.969,24.784,2.818,37.187
				C596.133,304.561,597.553,311.733,591.718,314.025z"/>
			<path style="fill:#1D1D1B;" d="M267.43,141.01c-0.531-1.182-2.459-0.573-2.405,0.651c0.129,2.918,0.555,5.673,0.564,8.514
				c-2.534-2.812-5.068-5.624-7.616-8.422c-0.825-0.906-2.701-0.244-2.563,1.062c0.49,4.638,1.067,9.26,1.755,13.874
				c0.188,1.263,2.288,0.964,2.226-0.301c-0.152-3.078-0.359-6.15-0.605-9.22c2.328,2.606,4.661,5.207,6.991,7.811
				c0.716,0.8,2.407,0.464,2.575-0.68C268.989,149.967,269.264,145.094,267.43,141.01z"/>
			<path style="fill:#1D1D1B;" d="M277.931,144.297c-0.494-0.405-1.043-0.465-1.512-0.317c-1.4-0.021-2.471-0.074-3.801,0.709
				c-1.21,0.712-2.186,1.891-2.678,3.204c-1.011,2.702,0.202,6.029,2.781,7.371c2.665,1.386,5.838-0.024,7.202-2.553
				C281.458,149.866,280.343,146.273,277.931,144.297z M277.202,150.75c-0.548,1.495-2.368,2.31-3.557,1.038
				c-1.731-1.851-0.064-4.4,1.852-5.692c0.069,0.125,0.151,0.25,0.263,0.371C276.797,147.584,277.784,149.163,277.202,150.75z"/>
			<path style="fill:#1D1D1B;" d="M299.535,150.103c-0.365-4.067-0.142-9.045-1.609-12.868c-0.369-0.962-2.058-1.271-2.277,0
				c-0.496,2.887-0.071,6.109,0.373,9.198c-2.65-2.418-5.043-5.088-7.16-8.014c-0.744-1.027-2.912-0.864-2.726,0.738
				c0.517,4.471,1.041,8.99,1.996,13.391c0.237,1.092,1.944,0.837,1.932-0.262c-0.03-2.759-0.23-5.525-0.494-8.282
				c2.237,2.598,4.688,4.983,7.386,7.167C297.856,151.901,299.664,151.544,299.535,150.103z"/>
			<path style="fill:#1D1D1B;" d="M312.28,149.272c-0.545-2.573-1.456-5.107-2.199-7.63c-0.262-0.888-1.008-1.17-1.68-1.026
				c-5.051-1.157-10.769,7.827-6.012,11.115c2.025,1.399,4.928,0.681,6.553-1.016c0.202-0.211,0.375-0.433,0.535-0.659
				C310.142,151.778,312.673,151.127,312.28,149.272z M307.331,147.175c-0.304,1.083-1.311,2.284-2.599,2.051
				c-2.06-0.372,0.208-5.059,2.543-6.357C307.527,144.266,307.715,145.807,307.331,147.175z"/>
			<path style="fill:#1D1D1B;" d="M327.168,138.024c-2.406-0.079-3.549,1.276-4.139,3.094c-0.841-1.016-2.03-1.709-3.719-1.81
				c-2.025-0.12-3.235,0.832-3.971,2.241c-0.053-0.299-0.105-0.599-0.156-0.903c-0.186-1.097-1.862-0.79-1.886,0.255
				c-0.064,2.779,0.362,5.575,0.849,8.307c0.313,1.754,2.906,1.23,2.983-0.404c0.038-0.809,0.076-1.617,0.156-2.424
				c0.195-1.965-0.134-2.715,1.957-3.112c2.039-0.387,2.265,0.514,2.61,2.424c0.18,0.993,0.132,1.995,0.111,2.999
				c-0.034,1.619,2.494,2.007,2.859,0.387c0.408-1.809-0.295-5.543,0.832-6.934c0.742-0.277,1.484-0.555,2.226-0.832
				c0.682,0.827,1.161,1.765,1.436,2.812c0.405,1.361,0.433,2.751,0.341,4.159c-0.121,1.861,2.774,1.853,2.896,0
				C332.779,144.856,331.732,138.174,327.168,138.024z"/>
			<path style="fill:#1D1D1B;" d="M338.686,137.75c-3.87-0.301-4.852,3.988-4.353,7.043c0.266,1.63,1.182,3.262,2.85,3.771
				c1.422,0.434,2.996-0.05,3.796-1.309c0.561-0.882-0.725-1.873-1.446-1.116c-0.608,0.638-1.475,0.295-1.947-0.339
				c-0.044-0.059-0.081-0.123-0.118-0.187c1.655,0.373,3.738-0.451,4.678-1.861C343.923,141.083,341.57,137.974,338.686,137.75z
				 M339.832,142.318c-0.691,0.966-1.894,0.591-2.76,0.216c-0.008-0.003-0.016-0.005-0.023-0.008
				c0.085-1.017,0.415-2.11,1.594-1.974C339.498,140.65,340.459,141.443,339.832,142.318z"/>
			<path style="fill:#1D1D1B;" d="M360.258,143.269c-1.102-1.423-2.648-2.305-4.311-2.61c1.621-0.97,2.859-2.559,2.677-4.259
				c-0.161-1.509-1.344-2.761-2.723-3.297c-1.647-0.64-3.347-0.228-4.938,0.369c-0.728-1.043-2.717-0.814-2.589,0.724
				c0.343,4.122,0.806,8.244,1.442,12.332c0.031,0.201,0.115,0.356,0.229,0.472c-0.02,0.543,0.264,1.09,0.883,1.222
				c3.168,0.676,7.007-1.156,9.33-3.209C360.802,144.533,360.645,143.769,360.258,143.269z M353.818,134.781
				c1.001,0.071,2.572,0.767,2.324,2.036c-0.358,1.834-3.143,1.759-4.575,2.316c-0.077-1.337-0.168-2.674-0.273-4.008
				C352.12,134.903,352.972,134.722,353.818,134.781z M351.813,145.649c-0.018-1.065-0.05-2.131-0.091-3.196
				c0.143,0.076,0.311,0.106,0.494,0.051c1.952-0.591,4.006-0.085,5.374,1.332c-0.825,0.502-1.676,0.938-2.619,1.244
				C353.928,145.417,352.866,145.479,351.813,145.649z"/>
			<path style="fill:#1D1D1B;" d="M366.783,130.745c-0.629-0.909-2.085-0.833-2.41,0.315c-1.408,4.976-2.155,10.012-2.443,15.17
				c-0.072,1.279,1.805,1.214,1.952,0c0.183-1.506,0.424-3.002,0.693-4.492c0.847,0.054,1.693,0.109,2.541,0.15
				c0.676,0.033,1.334,0.124,1.963-0.004c0.266,0.929,0.543,1.852,0.909,2.746c0.458,1.121,2.238,1.082,2.241-0.303
				C372.24,139.621,369.387,134.507,366.783,130.745z M367.115,139.917c-0.743,0.036-1.484,0.085-2.226,0.131
				c0.364-1.809,0.778-3.608,1.241-5.396c0.639,1.106,1.221,2.242,1.721,3.433c0.243,0.58,0.447,1.172,0.633,1.769
				C368.039,139.842,367.581,139.894,367.115,139.917z"/>
			<path style="fill:#1D1D1B;" d="M387.567,130.151c-0.166-1.668-2.674-1.746-2.66,0c0.024,3.154,0.244,6.309,0.456,9.46
				c-2.766-2.664-5.067-5.672-6.889-9.149c-0.635-1.211-2.555-0.632-2.54,0.688c0.052,4.59,0.12,9.219,0.655,13.782
				c0.128,1.091,1.609,1.114,1.716,0c0.282-2.949,0.367-5.922,0.38-8.892c2.03,2.903,4.45,5.504,7.279,7.703
				c0.838,0.651,2.363,0.336,2.3-0.953C388.06,138.58,387.985,134.346,387.567,130.151z"/>
			<path style="fill:#1D1D1B;" d="M404.353,139.605c-2.186-1.764-5.479-2.287-8.342-2.398c0.695-1.049,1.384-2.103,2.092-3.144
				c1.177-1.731,2.871-3.5,3.413-5.537c0.245-0.919-0.864-1.965-1.734-1.333c-1.718,1.247-2.707,3.361-3.788,5.159
				c-0.594,0.987-1.166,1.985-1.727,2.988c-0.179-2.108-0.438-4.198-0.873-6.191c-0.317-1.451-2.616-1.125-2.582,0.349
				c0.104,4.49,1.143,9.251,1.986,13.657c0.205,1.069,1.955,0.829,1.901-0.257c-0.056-1.138-0.106-2.299-0.165-3.471
				c0.086-0.132,0.175-0.261,0.261-0.393c0.038,0.008,0.074,0.018,0.114,0.022c1.507,0.141,2.992,0.427,4.428,0.913
				c1.329,0.45,2.538,1.204,3.89,1.571C404.269,141.82,405.291,140.361,404.353,139.605z"/>
			<path style="fill:#1D1D1B;" d="M536.535,135.177c-9.276,0.465-18.564,2.034-27.789,3.115c-9.046,1.06-18.095,2.093-27.146,3.099
				c-18.325,2.036-36.662,3.958-55.01,5.768c-36.255,3.576-72.556,6.701-108.882,9.46c-20.803,1.58-41.772,2.264-62.5,4.605
				c-1.039,0.117-1.101,1.676,0,1.668c18.616-0.129,37.288-1.97,55.854-3.273c18.168-1.275,36.327-2.659,54.476-4.187
				c36.742-3.093,73.446-6.64,110.101-10.636c10.157-1.107,20.311-2.25,30.46-3.427c10.216-1.184,20.653-1.915,30.746-3.906
				C538.129,137.212,537.844,135.112,536.535,135.177z"/>
			<path style="fill:#1D1D1B;" d="M313.011,221.092c-0.093-0.38-0.33-0.6-0.61-0.694c-1.257-4.426-5.482-6.127-9.809-6.067
				c-7.179,0.1-14.477,1.016-21.636,1.595c-4.945,0.4-12.129-0.207-16.392,2.797c-1.94,1.367-2.94,3.403-3.066,5.536
				c-0.243,0.096-0.446,0.304-0.46,0.604c-0.308,6.437,0.585,12.886,1.453,19.253c0.792,5.814,1.394,12.002,3.052,17.65
				c1.21,4.123,4.044,6.298,8.298,6.586c5.876,0.397,12.276-0.958,18.095-1.683c5.609-0.699,11.609-1.045,17.075-2.495
				c3.828-1.015,6.104-3.332,6.753-7.294C317.655,245.325,315.78,232.355,313.011,221.092z M311.977,226.258
				c0.762,3.873,1.292,7.768,1.612,11.682c-3.556,0.364-7.111,0.988-10.661,1.419c-0.263,0.032-0.436,0.189-0.528,0.378
				c-0.065-0.492-0.128-0.983-0.189-1.471c-0.469-3.776-0.975-7.548-1.544-11.309c3.639-0.281,7.363-0.119,10.967-0.593
				C311.765,226.347,311.876,226.308,311.977,226.258z M310.508,221.149c0.079,0.324,0.268,0.528,0.498,0.634
				c0.223,0.922,0.419,1.846,0.617,2.771c-3.655-0.324-7.553,0.413-11.173,1.037c-0.468-3.005-0.97-6.004-1.546-8.991
				C303.416,216.164,309.177,215.716,310.508,221.149z M263.599,232.444c-0.153-1.116-0.309-2.231-0.481-3.343
				c0.272-0.044,0.515-0.281,0.406-0.603c-2.198-6.52,3.061-8.794,9.072-9.676c0.138,3.734,0.359,7.463,0.641,11.188
				c-1.622-0.042-3.283,0.524-4.852,0.898c-1.579,0.376-3.385,0.538-4.731,1.484C263.633,232.406,263.617,232.427,263.599,232.444z
				 M263.742,233.478c0.02,0.006,0.035,0.017,0.057,0.021c1.589,0.306,3.204-0.225,4.773-0.524c1.588-0.303,3.309-0.478,4.807-1.115
				c0.342,4.204,0.762,8.402,1.24,12.595c-1.721-0.159-3.534,0.48-5.246,0.667c-1.383,0.151-2.775,0.201-4.166,0.196
				C264.706,241.372,264.266,237.417,263.742,233.478z M275.854,265.921c-3.258,0.115-6.303-0.442-7.656-3.799
				c-0.861-2.137-1.089-4.607-1.5-6.86c-0.507-2.779-0.913-5.573-1.283-8.372c3.058,0.382,6.878,0.57,9.384-0.874
				c0.765,6.501,1.659,12.987,2.627,19.454c0.022,0.144,0.067,0.262,0.123,0.366C276.984,265.871,276.419,265.901,275.854,265.921z
				 M290.016,264.451c-3.5,0.415-7.039,0.936-10.573,1.243c0.149-0.227,0.229-0.507,0.184-0.832
				c-2.136-15.378-3.625-30.827-5.433-46.244c3.803-0.412,7.668-0.38,9.966-0.594c4.454-0.416,8.902-0.892,13.357-1.292
				c0.763,7.622,1.696,15.227,2.552,22.84c0.856,7.613,0.907,15.663,2.474,23.152c0.009,0.041,0.023,0.076,0.035,0.113
				C298.401,263.448,294.205,263.954,290.016,264.451z M311.807,260.204c-1.475,1.428-3.753,1.774-5.697,2.092
				c-0.532,0.087-1.066,0.163-1.599,0.245c0.003-0.029,0.01-0.055,0.011-0.085c0.255-7.182-1.052-14.785-2.025-21.999
				c0.1,0.096,0.239,0.162,0.431,0.161c3.547-0.006,7.286-0.127,10.806-0.753c0.156,2.471,0.216,4.95,0.197,7.436
				c-1.555,0.332-3.1,0.716-4.642,1.102c-1.609,0.403-3.178,0.681-4.56,1.648c-0.25,0.175-0.268,0.652,0.094,0.719
				c1.6,0.296,3.032-0.037,4.619-0.329c1.485-0.273,2.975-0.537,4.454-0.848c-0.029,0.957-0.066,1.915-0.122,2.874
				C313.629,254.966,313.752,258.321,311.807,260.204z"/>
			<path style="fill:#1D1D1B;" d="M281.055,305.738c-1.131-1.054-2.41-1.967-3.662-2.889c0.802-1.925,1.466-3.894,1.915-5.804
				c0.349-1.483-1.758-2.035-2.261-0.623c-0.581,1.629-1.165,3.243-1.754,4.853c-0.345-0.26-0.689-0.523-1.036-0.781
				c-0.385-0.286-0.769-0.572-1.154-0.858c-0.192-0.143-0.385-0.286-0.577-0.429c-0.044-0.046-0.092-0.076-0.14-0.112
				c0.154-0.159,0.217-0.401,0.072-0.679c-0.765-1.464-2.598,0.148-1.738,1.548c0.811,1.319,2.578,2.391,3.803,3.396
				c-0.713,1.914-1.441,3.824-2.203,5.74c-0.345,0.869,0.971,1.307,1.438,0.606c0.965-1.446,1.865-3.04,2.669-4.702
				c1.035,0.905,2.083,1.801,3.206,2.575C280.733,308.336,282.023,306.639,281.055,305.738z"/>
			<path style="fill:#1D1D1B;" d="M295.134,294.938c0.354-1.207-1.235-1.692-1.899-0.8c-1.109,1.49-1.818,3.352-2.612,5.05
				c-1.023-1.079-2.046-2.158-3.069-3.237c-0.787-0.83-1.938,0.384-1.235,1.235c1.111,1.346,2.221,2.693,3.333,4.038
				c-0.587,1.226-1.171,2.453-1.735,3.689c-0.516,1.13,1.083,2.125,1.699,0.993c0.508-0.934,1.004-1.873,1.497-2.814
				c0.787,1.072,1.663,2.193,2.833,2.513c0.707,0.193,1.18-0.443,1.084-1.084c-0.211-1.409-1.665-2.595-2.769-3.639
				c0.115-0.222,0.23-0.443,0.345-0.665C293.497,298.499,294.588,296.799,295.134,294.938z"/>
			<path style="fill:#1D1D1B;" d="M310.517,303.85c-0.42-1.545-1.925-2.71-3.058-3.887c1.008-1.861,1.922-3.765,2.509-5.658
				c0.354-1.141-1.206-1.652-1.827-0.77c-0.921,1.308-1.711,2.801-2.432,4.349c-0.937-1.19-1.83-2.411-2.735-3.63
				c-0.704-0.948-2.203-0.141-1.617,0.945c0.955,1.77,2.1,3.429,3.312,5.033c-0.595,1.415-1.155,2.827-1.717,4.147
				c-0.424,0.994,0.933,1.874,1.495,0.874c0.546-0.971,1.134-1.975,1.723-2.998c0.875,1.182,1.875,2.369,3.185,2.755
				C310.051,305.217,310.703,304.534,310.517,303.85z"/>
			<path style="fill:#1D1D1B;" d="M326.868,303.091c-0.897-2.26-2.577-4.257-4.1-6.135c-0.025-0.031-0.05-0.063-0.075-0.094
				c0.012-0.028,0.025-0.054,0.036-0.082c0.793-1.901,1.958-4.066,1.917-6.152c-0.021-1.046-1.336-1.329-1.892-0.512
				c-0.924,1.358-1.248,3.111-1.729,4.707c-1.101-1.292-2.304-2.523-3.722-3.343c-0.552-0.319-1.139,0.31-0.851,0.851
				c0.956,1.794,2.418,3.347,3.707,4.959c-0.556,1.477-1.158,2.935-1.805,4.377c-0.492,1.096,1.074,2.069,1.644,0.961
				c0.566-1.098,1.1-2.21,1.616-3.33c1.087,1.655,2.072,3.422,3.359,4.896C325.693,305.016,327.287,304.145,326.868,303.091z"/>
			<path style="fill:#1D1D1B;" d="M356.312,299.435c-0.922-1.446-1.941-2.895-3.016-4.32c1.336-2.76,2.264-5.762,2.073-8.502
				c-0.069-0.98-1.397-1.189-1.716-0.232c-0.717,2.155-0.87,4.469-1.609,6.646c-0.037,0.108-0.083,0.212-0.121,0.32
				c-1.409-1.774-2.879-3.496-4.328-5.111c-0.557-0.621-1.581,0.182-1.15,0.887c1.362,2.225,2.861,4.515,4.451,6.719
				c-0.632,1.356-1.351,2.67-2.151,3.941c-0.517,0.821,0.728,1.5,1.277,0.747c0.681-0.934,1.381-1.984,2.042-3.109
				c0.857,1.129,1.733,2.228,2.63,3.265C355.458,301.57,356.938,300.418,356.312,299.435z"/>
			<path style="fill:#1D1D1B;" d="M372.206,284.831c0.235-0.978-0.985-1.389-1.539-0.649c-1.476,1.971-2.278,4.564-3.272,6.813
				c-0.139,0.314-0.274,0.629-0.412,0.943c-1.125-1.598-2.201-3.236-3.229-4.895c-0.514-0.829-1.651-0.107-1.277,0.747
				c0.99,2.265,2.146,4.403,3.492,6.474c-0.421,0.976-0.838,1.954-1.248,2.935c-0.299,0.717,0.894,1.207,1.251,0.527
				c0.335-0.636,0.66-1.276,0.99-1.915c0.916,1.419,1.941,2.883,3.305,3.735c0.938,0.586,1.749-0.531,1.378-1.378
				c-0.745-1.702-2.278-3.169-3.506-4.658c0.422-0.834,0.843-1.669,1.262-2.505C370.4,289.007,371.681,287.011,372.206,284.831z"/>
			<path style="fill:#1D1D1B;" d="M382.585,291.838c-0.014-0.019-0.029-0.036-0.043-0.055c0.095-0.227,0.187-0.456,0.285-0.682
				c0.899-2.081,2.203-4.083,2.769-6.279c0.187-0.725-0.776-1.377-1.315-0.766c-1.391,1.577-2.442,3.621-3.289,5.795
				c-0.926-1.099-1.895-2.16-2.917-3.179c-0.782-0.78-1.919,0.387-1.202,1.202c1.182,1.344,2.297,2.74,3.329,4.198
				c-0.643,1.971-1.161,3.956-1.643,5.719c-0.282,1.031,1.269,1.448,1.594,0.439c0.439-1.365,0.917-2.714,1.428-4.051
				c0.805,1.416,1.491,3.012,2.772,3.977c0.53,0.399,1.384-0.137,1.338-0.768C385.539,295.319,383.794,293.443,382.585,291.838z"/>
			<path style="fill:#1D1D1B;" d="M404.853,295.43c-0.165-0.45-0.502-0.715-0.981-0.747c-0.068-0.005-0.135-0.009-0.203-0.013
				c-0.029-0.002-0.051,0.009-0.079,0.009c-0.087-0.076-0.221-0.191-0.369-0.408c-0.322-0.47-0.785-0.891-1.162-1.318
				c-0.638-0.724-1.276-1.448-1.914-2.172c0.887-1.871,1.531-3.854,1.849-5.879c0.216-1.378-1.871-1.992-2.125-0.586
				c-0.303,1.676-0.695,3.262-1.197,4.797c-1.388-1.577-2.773-3.155-4.174-4.72c-0.678-0.757-1.682,0.329-1.091,1.091
				c1.487,1.914,2.994,3.813,4.497,5.714c-0.619,1.507-1.362,2.977-2.277,4.442c-0.335,0.537,0.462,1.178,0.89,0.687
				c0.962-1.105,1.827-2.315,2.584-3.593c1.091,1.513,2.554,4.264,4.318,4.565c0.677,0.116,1.182-0.178,1.436-0.815
				C405.01,296.097,404.994,295.818,404.853,295.43z"/>
			<path style="fill:#1D1D1B;" d="M430.788,291.717c-0.479-1.674-1.687-3.143-2.607-4.61c-0.036-0.058-0.072-0.117-0.109-0.176
				c0.623-1.685,1.134-3.385,1.304-5.041c0.105-1.022-1.396-1.31-1.862-0.504c-0.505,0.872-0.842,1.842-1.129,2.828
				c-0.423-0.67-0.852-1.336-1.306-1.983c-0.571-0.814-1.763-0.121-1.332,0.779c0.599,1.25,1.274,2.467,1.948,3.682
				c-0.552,1.889-1.074,3.787-1.608,5.681c-0.301,1.068,1.268,1.464,1.639,0.452c0.41-1.118,0.901-2.282,1.389-3.47
				c0.587,1.174,1.196,2.372,2.094,3.281C429.869,293.304,431.048,292.625,430.788,291.717z"/>
			<path style="fill:#1D1D1B;" d="M448.29,291.712c-0.826-2.027-2.622-3.636-3.89-5.417c-0.194-0.273-0.38-0.553-0.569-0.83
				c0.71-1.799,1.548-3.637,1.686-5.549c0.069-0.948-1.217-1.138-1.672-0.453c-0.728,1.096-1.151,2.387-1.524,3.684
				c-0.605-0.976-1.189-1.964-1.76-2.957c-0.548-0.952-1.975-0.109-1.468,0.858c0.799,1.522,1.65,3.007,2.529,4.478
				c-0.658,2.069-1.359,4.13-1.903,6.232c-0.221,0.853,1.109,1.496,1.481,0.625c0.649-1.518,1.216-3.07,1.78-4.623
				c1.089,1.776,2.121,3.864,3.806,5.107C447.476,293.375,448.62,292.52,448.29,291.712z"/>
			<path style="fill:#1D1D1B;" d="M458.727,285.607c1.528-2.711,2.632-5.747,2.335-8.365c-0.089-0.779-1.248-1.351-1.672-0.453
				c-0.906,1.92-1.098,4.126-1.877,6.12c-0.031,0.081-0.071,0.156-0.104,0.236c-1.005-2.017-1.884-4.094-2.804-6.269
				c-0.265-0.625-1.327-0.306-1.276,0.346c0.231,2.951,1.284,5.983,2.726,8.73c-0.673,1.209-1.42,2.375-2.219,3.527
				c-0.572,0.825,0.732,1.837,1.397,1.078c0.646-0.738,1.329-1.611,1.994-2.565c0.396,0.633,0.808,1.246,1.232,1.828
				c0.937,1.286,3.104,0.053,2.161-1.263C459.923,287.583,459.301,286.6,458.727,285.607z"/>
			<path style="fill:#1D1D1B;" d="M479.793,287.375c-0.786-1.826-2.627-3.263-3.897-4.775c0.107-0.335,0.21-0.671,0.321-1.005
				c0.701-2.11,1.776-4.21,1.957-6.434c0.071-0.869-1.065-0.966-1.481-0.401c-1.247,1.693-1.732,3.935-2.28,5.967
				c-0.846-1.104-1.689-2.214-2.642-3.217c-0.626-0.659-1.467,0.177-1.162,0.897c0.762,1.795,1.922,3.43,3.099,4.998
				c-0.414,1.656-0.783,3.323-1.082,5.007c-0.167,0.942,1.193,1.355,1.457,0.402c0.329-1.186,0.658-2.371,1.002-3.553
				c0.956,1.321,1.996,2.712,3.395,3.427C479.39,289.154,480.166,288.24,479.793,287.375z"/>
			<path style="fill:#1D1D1B;" d="M509.934,284.382c-0.71-1.968-2.527-3.543-3.798-5.247c0.687-1.969,1.137-3.992,1.118-5.945
				c-0.01-1.039-1.518-1.249-1.809-0.245c-0.369,1.278-0.566,2.6-0.817,3.911c-0.924-1.496-1.783-3.036-2.594-4.592
				c-0.4-0.767-1.691-0.239-1.41,0.594c0.824,2.443,1.892,4.726,3.258,6.915c-0.567,1.776-1.277,3.495-2.114,5.166
				c-0.428,0.854,0.813,1.6,1.291,0.755c0.695-1.23,1.401-2.569,2.033-3.967c0.955,1.491,2.098,3.025,3.5,3.686
				C509.242,285.719,510.228,285.199,509.934,284.382z"/>
			<path style="fill:#1D1D1B;" d="M526.105,282.328c-0.513-1.845-2.231-3.398-3.398-4.893c-0.239-0.307-0.481-0.611-0.72-0.918
				c0.788-1.862,1.783-3.774,2.097-5.755c0.163-1.032-1.09-1.639-1.712-0.722c-0.9,1.329-1.439,2.907-1.977,4.448
				c-0.671-0.854-1.339-1.711-2.012-2.563c-0.626-0.793-1.995,0.255-1.409,1.087c0.867,1.231,1.74,2.459,2.611,3.687
				c-0.706,1.871-1.397,3.747-2.091,5.623c-0.436,1.178,1.386,1.62,1.852,0.51c0.569-1.355,1.134-2.712,1.7-4.069
				c1.103,1.557,2.078,3.582,3.706,4.604C525.439,283.799,526.315,283.086,526.105,282.328z"/>
			<path style="fill:#1D1D1B;" d="M542.873,282.732c-1.055-2.09-3.14-3.794-4.511-5.715c-0.044-0.062-0.084-0.126-0.128-0.188
				c0.432-1.366,0.812-2.74,1.087-4.117c0.188-0.941-1.24-1.715-1.669-0.703c-0.344,0.813-0.654,1.647-0.942,2.493
				c-0.75-1.222-1.455-2.472-2.13-3.737c-0.64-1.2-2.288-0.145-1.78,1.041c0.841,1.965,1.851,3.834,3.003,5.625
				c-0.527,1.861-0.99,3.744-1.472,5.578c-0.271,1.03,1.229,1.418,1.578,0.435c0.447-1.259,0.921-2.535,1.379-3.823
				c1.161,1.676,2.471,3.549,4.196,4.5C542.402,284.628,543.326,283.628,542.873,282.732z"/>
			<path style="fill:#1D1D1B;" d="M556.828,280.159c-0.908-1.872-2.545-3.42-3.678-5.18c-0.239-0.371-0.463-0.748-0.685-1.126
				c0.618-1.782,1.126-3.586,1.302-5.342c0.1-1.002-1.414-1.339-1.862-0.504c-0.449,0.836-0.824,1.741-1.152,2.683
				c-0.218-0.427-0.436-0.855-0.655-1.284c-0.441-0.863-1.909-0.265-1.582,0.667c0.4,1.142,0.886,2.257,1.427,3.345
				c-0.489,1.908-0.867,3.856-1.294,5.63c-0.264,1.099,1.286,1.493,1.669,0.46c0.381-1.026,0.807-2.092,1.229-3.178
				c0.003,0.005,0.006,0.01,0.009,0.015c1.082,1.791,2.256,3.876,3.98,5.107C556.374,282.049,557.199,280.924,556.828,280.159z"/>
			<path style="fill:#1D1D1B;" d="M553.609,198.205c-1.852-14.865-4.005-29.701-6.639-44.449c0.01-0.001,0.021-0.003,0.031-0.004
				c1.148-0.156,0.889-2.159-0.276-2.04c-14.92,1.52-29.807,3.538-44.7,5.31c-14.234,1.694-28.46,3.347-42.633,5.493
				c-0.278-0.867-1.872-0.633-1.747,0.344c1.989,15.513,2.793,31.04,3.795,46.639c0.465,7.24,1.045,14.467,2.012,21.66
				c0.53,3.944,1.183,7.872,2.005,11.766c0.673,3.19,1.257,6.725,2.83,9.633c-0.293,0.438-0.135,1.141,0.54,1.099
				c14.595-0.92,29.119-2.554,43.666-4.021c7.051-0.711,14.103-1.408,21.15-2.156c7.075-0.751,14.411-1.118,21.388-2.53
				c1.054-0.213,0.814-1.906-0.253-1.87c-7.024,0.232-14.15,1.512-21.135,2.313c-7.269,0.834-14.536,1.671-21.811,2.447
				c-14.319,1.528-28.671,2.695-42.973,4.381c-0.064-3.068-0.961-6.17-1.481-9.175c-0.7-4.044-1.287-8.103-1.781-12.177
				c-0.939-7.727-1.543-15.498-2.058-23.264c-0.97-14.621-1.448-29.441-3.933-43.911c14.616-1.259,29.167-3.036,43.735-4.76
				c13.79-1.632,27.623-3.063,41.391-4.881c2.579,15.327,4.905,30.687,6.719,46.125c1.733,14.742,2.62,29.637,4.662,44.333
				c0.115,0.83,1.438,0.609,1.438-0.195C557.539,228.97,555.503,213.41,553.609,198.205z"/>
			<path style="fill:#1D1D1B;" d="M283.257,323.919c-0.311-1.137-1.952-1.109-2.277,0c-0.668,2.281-0.642,4.928-0.545,7.505
				c-1.339-1.793-2.491-3.707-3.51-5.748c-0.6-1.202-2.717-0.668-2.594,0.703c0.32,3.546,0.636,7.09,1.01,10.63
				c0.149,1.408,2.301,1.477,2.251,0c-0.055-1.618-0.125-3.236-0.199-4.853c1.074,1.558,2.277,3.028,3.59,4.418
				c0.886,0.938,2.475,0.201,2.491-1.032C283.522,331.868,284.23,327.479,283.257,323.919z"/>
			<path style="fill:#1D1D1B;" d="M293.722,330.074c-1.113-2.925-4.325-4.583-7.321-3.623c-1.072,0.344-0.628,1.871,0.46,1.67
				c1.83-0.338,3.701,0.635,4.446,2.34c0.563,1.289,0.467,2.965-0.911,3.675c-0.865,0.446-2.345,0.47-2.598-0.702
				c-0.216-1.004,0.644-1.928,1.472-2.317c0.783-0.368,0.484-1.495-0.226-1.726c-2.636-0.857-4.457,2.161-4.065,4.486
				c0.469,2.777,3.502,3.903,5.962,2.996C293.719,335.849,294.733,332.731,293.722,330.074z"/>
			<path style="fill:#1D1D1B;" d="M305.502,325.28c-1.365-0.211-2.566,0.297-3.427,1.161c-0.828-1.524-1.955-2.709-3.615-2.205
				c-1.051,0.319-1.735,1.209-2.206,2.33c-0.316-0.576-1.389-0.64-1.498,0.14c-0.334,2.391-0.265,4.751,0.201,7.122
				c0.255,1.297,2.237,1.216,2.543,0c0.275-1.092,0.541-2.184,0.796-3.281c0.167-0.719,0.279-2.752,0.85-3.25
				c-0.234-0.478-0.213-0.451,0.063,0.083c0.239,0.49,0.475,0.981,0.708,1.474c0.354,0.748,0.694,1.501,1.034,2.255
				c0.087,0.244,0.19,0.485,0.329,0.716c0.964,1.609,3.188,0.202,2.46-1.438c-0.049-0.111-0.1-0.234-0.151-0.362
				c-0.354-1.258,1.125-2.623,2.28-1.599c0.952,0.844,0.579,2.157,0.219,3.189c-0.394,1.131,1.075,1.716,1.841,1.072
				C310.53,330.5,308.665,325.767,305.502,325.28z"/>
			<path style="fill:#1D1D1B;" d="M318.557,328.058c1.047-2.855-0.916-6.45-4.104-6.477c-2.843-0.024-5.022,2.561-5.179,5.244
				c-0.312,0.311-0.378,0.908-0.063,1.282c0.059,0.07,0.13,0.136,0.195,0.205c0.069,0.281,0.154,0.559,0.276,0.828
				c1.427,3.138,5.75,4.528,8.505,2.324c0.376-0.301,0.077-1.055-0.412-0.994c-0.693,0.086-1.452,0.115-2.199,0.04
				C316.886,330.29,318.012,329.546,318.557,328.058z M316.661,327.201c-0.697,2.339-3.156,1.191-5.037,0.228
				c-0.167-1.59,0.84-3.366,2.499-3.667C315.974,323.425,317.139,325.596,316.661,327.201z"/>
			<path style="fill:#1D1D1B;" d="M339.555,326.255c-0.149-1.751-1.951-2.633-3.543-2.696c-1.287-0.051-4.075,1.085-4.248-0.967
				c-0.169-2.002,2.304-2.429,3.796-2.166c1.014,0.179,1.409-1.199,0.427-1.548c-1.95-0.693-4.386-0.508-5.741,1.241
				c-1.016,1.311-1.099,3.3-0.126,4.658c1.526,2.132,3.785,1.008,5.892,1.041c2.611,0.041,0.33,2.164-0.859,2.551
				c-1.355,0.441-2.58,0.046-3.934-0.154c-0.846-0.125-1.589,0.822-0.888,1.526C332.845,332.264,339.903,330.345,339.555,326.255z"
				/>
			<path style="fill:#1D1D1B;" d="M345.779,318.874c-0.523-0.305-1.252,0.08-1.232,0.707c0.042,1.28,0.956,2.323,1.231,3.571
				c0.312,1.413-0.107,2.64-1.516,3.152c-2.842,1.033-4.217-2.736-2.276-4.544c0.468-0.436-0.156-1.283-0.696-0.902
				c-3.32,2.341-1.8,7.822,2.411,7.714c1.832-0.047,3.606-1.167,4.216-2.933C348.634,323.563,347.75,320.025,345.779,318.874z"/>
			<path style="fill:#1D1D1B;" d="M354.272,317.549c-2.123-0.42-3.821,1.368-4.403,3.285c-0.828,2.727,0.579,5.436,2.037,7.656
				c0.342,0.521,1.304,0.204,1.064-0.449c-0.612-1.67-1.526-3.625-1.308-5.445c0.22-1.834,1.323-2.644,2.818-3.45
				C355.116,318.804,355.013,317.696,354.272,317.549z"/>
			<path style="fill:#1D1D1B;" d="M366.155,320.452c-0.667-1.646-1.943-3.008-3.803-3.141c-2.093-0.15-3.815,1.312-4.554,3.184
				c-0.973,2.464-0.016,5.044,0.988,7.324c0.401,0.91,1.841,0.257,1.582-0.667c-0.464-1.661-1.185-3.612-0.636-5.333
				c0.408-1.277,1.844-2.73,3.217-1.758c1.944,1.376,0.739,4.242,1.871,5.901c0.436,0.64,1.213,0.588,1.658,0
				C367.48,324.641,366.718,321.84,366.155,320.452z"/>
			<path style="fill:#1D1D1B;" d="M376.966,321.158c-1.077-3.064-4.446-4.198-7.367-4.632c-0.983-0.146-1.442,1.281-0.423,1.533
				c1.062,0.262,2.386,0.703,3.505,1.372c-2.273,0.058-4.185,2.422-3.817,4.737c0.413,2.599,3.445,4.214,5.848,3.218
				C377.112,326.392,377.767,323.436,376.966,321.158z M374.889,323.676c-0.37,1.456-2.045,2.2-3.173,0.945
				c-1.402-1.561,0.578-2.886,1.966-3.182c0.35-0.075,0.559-0.311,0.647-0.592C374.904,321.613,375.177,322.544,374.889,323.676z"/>
			<path style="fill:#1D1D1B;" d="M387.997,316.727c-1.682-0.288-3.203,0.461-4.177,1.67c-0.87-1.482-2.222-2.454-4.226-1.649
				c-3.573,1.436-0.366,5.54-0.827,7.968c-0.158,0.835,1.064,1.198,1.29,0.356c0.327-1.22,0.11-2.332-0.122-3.548
				c-0.159-0.83-1.015-3.558,1.547-2.675c0.788,0.272,1.1,1.338,1.248,2.312c-0.036,0.535,0.015,1.079,0.181,1.612
				c0.353,1.129,2.319,1.001,2.173-0.294c-0.011-0.094-0.026-0.195-0.04-0.294c0,0,0,0,0,0c-0.001-0.002-0.001-0.004-0.001-0.006
				c-0.023-0.167-0.051-0.337-0.083-0.513c-0.105-1.699,1.599-3.328,3.311-2.387c1.434,0.788,1.541,2.375,1.108,3.769
				c-0.37,1.191,1.438,1.974,2.028,0.855C392.858,321.149,391.158,317.269,387.997,316.727z"/>
			<path style="fill:#1D1D1B;" d="M402.63,316.229c-0.919-3.091-4.935-3.43-7.326-2.019c-2.546,1.502-3.474,4.794-1.476,7.148
				c1.862,2.194,5.423,2.695,7.513,0.567c0.633-0.644-0.22-1.87-1.001-1.298c-0.803,0.588-1.841,0.638-2.778,0.355
				C400.371,321.078,403.564,319.368,402.63,316.229z M396.014,316.739c0.961-0.86,2.868-1.368,3.891-0.313
				c0.923,0.952-0.094,1.901-1.107,2.105c-1.117,0.225-2.243-0.187-3.367-0.025c-0.099,0.014-0.183,0.048-0.262,0.088
				C395.106,317.988,395.34,317.342,396.014,316.739z"/>
			<path style="fill:#1D1D1B;" d="M472.361,395.887c-0.818-19.594-17.765-36.351-37.766-34.972c-0.7,0.048-1.39,0.483-1.995,1.11
				c-13.09-1.458-26.694,4.246-34.902,14.908c-10.881,14.135-12.759,35.067-2.788,50.214c6.644,10.091,18.027,14.788,29.707,15.176
				c-1.459,3.286-2.918,6.572-4.377,9.858c-0.496,1.118-0.541,2.698,0.506,3.494c1.942,1.477,3.698,3.081,5.349,4.854
				c-5.745,16.694-10.017,33.885-12.604,51.353c-0.678,4.58-1.24,9.178-1.69,13.786c-0.399,4.096-1.119,8.436-0.432,12.531
				c0.636,3.791,2.763,6.681,5.331,9.433c3.233,3.465,6.596,6.814,9.994,10.117c1.846,1.794,4.104-0.953,4.738-2.63
				c1.63-4.315,3.26-8.63,4.89-12.944c1.304-3.453,3.215-7.199,3.16-10.982c-0.055-3.794-2.249-7.221-3.528-10.692
				c-1.421-3.857-2.475-7.84-3.222-11.881c-3.026-16.381-0.822-33.288,1.417-49.637c0.632-0.362,1.217-0.853,1.723-1.636
				c1.304-2.018,2.219-4.62,2.641-6.973c0.352-1.963,0.299-4.01-0.65-5.8c-0.638-1.203-2.105-2-3.115-2.979
				c3.633-0.64,7.169-1.673,10.463-3.078C461.887,431.401,473.122,414.104,472.361,395.887z M432.744,453.325
				c-0.825,0.291-1.598,0.653-2.352,1.082c-1.369-1.443-2.815-2.798-4.349-4.062c0.838-1.887,1.676-3.775,2.514-5.663
				c0.555,1.884,1.708,2.615,3.112,3.827C433.375,449.981,433.385,451.578,432.744,453.325z M432.705,529.834
				c0.769,1.802,1.553,3.565,1.161,5.555c-0.421,2.138-1.565,4.307-2.333,6.338c-0.96,2.54-1.919,5.08-2.879,7.621
				c-2.038-2.02-4.06-4.056-6.042-6.132c-2.75-2.881-5.658-5.769-6.014-9.955c-0.354-4.166,0.434-8.571,0.893-12.707
				c0.464-4.183,1.025-8.357,1.678-12.515c1.914-12.176,4.658-24.191,8.172-35.989c-1.385,11.864-2.16,23.831-0.672,35.691
				C427.636,515.452,429.66,522.698,432.705,529.834z M450.599,429.499c-13.223,7.969-32.51,8.583-44.967-1.338
				c-12.16-9.685-14.983-28.622-8.289-42.22c7.587-15.414,27.401-21.485,42.703-14.198c1.449,0.69,3.115-0.691,4.036-2.381
				c9.796,3.198,18.074,10.921,21.296,20.948C470.117,405.056,463.813,421.535,450.599,429.499z"/>
			<path style="fill:#1D1D1B;" d="M422.446,458.009c-21.96-0.984-44.108-9.133-59.12-25.673
				c-13.907-15.323-21.251-36.951-15.433-57.303c2.946-10.305,8.969-19.317,17.444-25.82c2.686,2.454,6.636,2.835,10.031,1.294
				c4.126-1.873,7.072-6.299,6.877-10.881c-0.179-4.2-3.269-8.002-7.548-8.354c-2.924-0.241-5.923,6.638-2.599,6.911
				c2.006,0.165,3.654,1.419,4.398,3.311c0.732,1.861,0.108,2.46-1.781,2.9c-2.005,0.467-4.101-0.151-5.474-1.699
				c-1.077-1.215-2.231-3.737-1.448-5.385c0.563-1.184,1.472-3.512-0.074-4.404c-1.419-0.82-3.307,0.993-3.852,2.138
				c-1.465,3.083-2.141,6.609-1.187,9.827c-16.308,13.167-24.501,35.249-21.703,55.927c3.147,23.249,18.795,43.176,39.358,53.887
				c12.185,6.347,25.827,9.621,39.512,10.235C422.784,465.052,425.733,458.156,422.446,458.009z"/>
			<path style="fill:#1D1D1B;" d="M504.021,363.577c-0.976-11.665-4.006-23.455-11.353-32.769c4.521-2.866,7.403-8.883,5.448-14.23
				c-1.559-4.264-5.707-7.042-10.272-6.084c-5.133,1.077-9.102,5.968-9.783,11.042c-0.657,4.901,4.861,1.898,5.296-1.345
				c0.289-2.155,2.42-3.084,4.483-2.964c2.269,0.132,4.171,1.811,5.032,3.857c1.955,4.645-3.925,5.265-6.915,3.459
				c-2.631-1.589-6.449,4.93-3.777,6.543c1.696,1.024,3.446,1.45,5.145,1.412c-0.51,1.184-0.62,2.434,0.03,3.219
				c12.654,15.277,13.503,38.271,9.63,56.898c-3.871,18.615-13.773,35.517-28.103,48.003c-7.931,6.911-17.043,12.418-26.861,16.202
				c-1.696,0.654-2.981,2.261-3.288,4.069c-0.198,1.164,0.279,3.391,2.008,2.724C481.03,448.084,507.643,406.87,504.021,363.577z"/>
			<path style="fill:#1D1D1B;" d="M462.793,663.471c-8.077-3.23-17.809,1.714-24.191,7.313c0.003-1.944,0.422-4.034,0.564-5.89
				c0.221-2.878,0.436-5.756,0.644-8.635c0.4-5.536,0.776-11.074,1.119-16.614c0.686-11.079,1.244-22.167,1.618-33.261
				c0.331-9.796,0.505-19.633-1.072-29.342c-0.875-5.389-3.389-22.039-12.108-19.193c-3.581,1.169-6.726,4.739-8.952,7.633
				c-2.618,3.403-4.637,7.207-6.274,11.166c-3.69,8.925-5.757,18.683-7.271,28.188c-3.236,20.324-3.049,40.952-1.976,61.457
				c-3.67-2.413-8.025-3.678-12.538-3.335c-5.913,0.45-11.809,4.402-12.603,10.655c-0.955,7.521,6.623,10.505,12.849,9.996
				c7.004-0.572,13.562-3.15,18.274-8.473c1.785-2.016,1.366-4.914-0.162-5.274c-1.301-21.477-2.008-43.175,1.165-64.522
				c1.526-10.266,3.5-21.264,8.12-30.654c0.907-1.843,1.95-3.646,3.196-5.281c1.137-1.491,3.331-4.498,5.299-4.926
				c4.318-0.938,6.36,10.335,6.96,13.024c2.329,10.441,2.004,21.281,1.645,31.903c-0.397,11.76-1,23.513-1.743,35.256
				c-0.379,5.983-0.794,11.963-1.237,17.941c-0.213,2.878-0.433,5.756-0.659,8.634c-0.179,2.29-0.549,4.714,0.326,6.907
				c1.545,3.875,6.637,5.035,10.317,5.807c4.599,0.965,9.874,1.091,14.341-0.574c4.352-1.622,7.877-5.315,8.913-9.905
				C468.29,669.345,466.93,665.125,462.793,663.471z M385.207,672.495c-0.241-3.093,7.042-2.784,9.022-2.461
				c3.468,0.566,6.611,2.192,9.15,4.547c-1.937,0.877-4.049,1.424-6.126,1.795C394.144,676.931,385.601,677.557,385.207,672.495z
				 M451.533,677.663c-2.585-0.127-7.687-0.534-10.639-2.419c2.843-2.368,6.222-4.065,9.813-4.976
				c3.183-0.807,10.299-1.888,11.43,2.651C463.324,677.679,454.27,677.797,451.533,677.663z"/>
			<path style="fill:#1D1D1B;" d="M448.439,406.403c-1.615,0.79-2.626,2.902-2.671,4.626c-0.161,6.197-11.449,8.833-16.146,9.13
				c-6.787,0.429-13.414-2.208-17.357-7.854c-1.901-2.722-6.377,3.285-4.686,5.706c5.831,8.348,16.432,10.614,25.906,8.034
				c8.549-2.328,17.478-8.339,17.73-18.04C451.258,406.324,449.806,405.734,448.439,406.403z"/>
			<path style="fill:#1D1D1B;" d="M424.92,396.305c-0.984-0.657-1.667-1.662-1.821-2.856c-0.053-0.408,0.019-1.206-0.053-1.157
				c1.48-1.003,2.755-2.749,2.671-4.626c-0.066-1.482-1.358-2.564-2.776-1.603c-5.226,3.543-7.959,12.673-1.798,16.784
				C423.665,404.53,427.541,398.054,424.92,396.305z"/>
			<path style="fill:#1D1D1B;" d="M441.244,391.685c1.561-0.706,2.746-2.956,2.671-4.626c-0.077-1.719-1.3-2.27-2.776-1.603
				c-5.305,2.398-8.375,10.423-4.75,15.356c1.982,2.697,6.431-3.332,4.686-5.706c-0.581-0.791-0.94-1.657-0.754-2.651
				c0.041-0.22,0.001-0.26,0.17-0.419C440.236,392.276,441.263,391.677,441.244,391.685z"/>
		</g>
	</g>
</g>
</svg>
